<svg width="64" height="73" viewBox="0 0 64 73" fill="none" xmlns="http://www.w3.org/2000/svg">
<g clip-path="url(#clip0_56_3)">
<path d="M43.4618 15.1256C43.36 14.746 43.5927 14.3518 43.9709 14.2496C44.3491 14.1474 44.7418 14.381 44.8436 14.7606C44.9455 15.1402 44.7273 15.5344 44.3491 15.6366C44.2909 15.6512 44.2182 15.6658 44.16 15.6658C43.8255 15.6512 43.5491 15.4322 43.4618 15.1256ZM42.8946 13.8262C42.9673 13.8262 43.0255 13.8262 43.0836 13.797C43.4764 13.6948 43.7091 13.3006 43.6073 12.9064C43.5055 12.5122 43.1127 12.2786 42.72 12.3808C42.3273 12.483 42.0946 12.8772 42.1964 13.2714C42.2836 13.5926 42.56 13.8116 42.8946 13.8262ZM41.3527 12.2202C41.4255 12.2202 41.4836 12.2202 41.5418 12.191C41.9346 12.0888 42.1673 11.6946 42.0655 11.3004C41.9636 10.9062 41.5709 10.6726 41.1782 10.7748C40.7855 10.877 40.5527 11.2712 40.6546 11.6654C40.7418 12.0012 41.0182 12.2202 41.3527 12.2202ZM39.5636 10.9062C39.6364 10.9062 39.6946 10.9062 39.7527 10.877C40.1455 10.7748 40.3782 10.3806 40.2764 9.98639C40.1746 9.59219 39.7818 9.35859 39.3891 9.46079C38.9964 9.56299 38.7636 9.95719 38.8655 10.3514C38.9527 10.6726 39.2291 10.8916 39.5636 10.9062ZM37.5564 9.89879C37.6291 9.89879 37.6873 9.89879 37.7455 9.86959C38.1382 9.76739 38.3709 9.37319 38.2691 8.97899C38.1673 8.58479 37.7746 8.35119 37.3818 8.45339C36.9891 8.55559 36.7564 8.94979 36.8582 9.34399C36.9455 9.66519 37.2364 9.88419 37.5564 9.89879ZM35.3891 9.22719C35.4618 9.22719 35.52 9.22719 35.5782 9.19799C35.9709 9.09579 36.2036 8.70159 36.1018 8.30739C36 7.91319 35.6073 7.67959 35.2146 7.78179C34.8218 7.88399 34.5891 8.27819 34.6909 8.67239C34.7782 8.99359 35.0691 9.21259 35.3891 9.22719ZM33.0764 8.93519C33.1491 8.93519 33.2073 8.93519 33.2655 8.90599C33.6582 8.80379 33.8909 8.40959 33.7891 8.01539C33.6873 7.62119 33.2946 7.38759 32.9018 7.48979C32.5091 7.59199 32.2764 7.98619 32.3782 8.38039C32.4655 8.70159 32.7418 8.93519 33.0764 8.93519ZM30.7346 9.05199C30.8073 9.05199 30.8655 9.05199 30.9236 9.02279C31.3164 8.92059 31.5491 8.52639 31.4473 8.13219C31.3455 7.73799 30.9527 7.50439 30.56 7.60659C30.1673 7.70879 29.9346 8.10299 30.0364 8.49719C30.1236 8.81839 30.4 9.05199 30.7346 9.05199ZM28.4946 9.56299C28.5673 9.56299 28.6255 9.56299 28.6836 9.53379C29.0764 9.43159 29.3091 9.03739 29.2073 8.64319C29.1055 8.24899 28.7127 8.01539 28.32 8.11759C27.9273 8.21979 27.6946 8.61399 27.7964 9.00819C27.8982 9.32939 28.1746 9.54839 28.4946 9.56299ZM26.4291 10.4244C26.5018 10.4244 26.56 10.4244 26.6182 10.3952C27.0109 10.293 27.2436 9.89879 27.1418 9.50459C27.04 9.11039 26.6473 8.87679 26.2546 8.97899C25.8618 9.08119 25.6291 9.47539 25.7309 9.86959C25.8327 10.1908 26.1091 10.4098 26.4291 10.4244ZM24.5673 11.607C24.64 11.607 24.6982 11.607 24.7564 11.5778C25.1491 11.4756 25.3818 11.0814 25.28 10.6872C25.1782 10.293 24.7855 10.0594 24.3927 10.1616C24 10.2638 23.7673 10.658 23.8691 11.0522C23.9564 11.3734 24.2327 11.607 24.5673 11.607ZM22.9091 13.0816C22.9818 13.0816 23.04 13.0816 23.0982 13.0524C23.4909 12.9502 23.7236 12.556 23.6218 12.1618C23.52 11.7676 23.1273 11.534 22.7346 11.6362C22.3418 11.7384 22.1091 12.1326 22.2109 12.5268C22.3127 12.848 22.5891 13.067 22.9091 13.0816ZM21.5273 14.8044C21.6 14.8044 21.6582 14.8044 21.7164 14.7752C22.1091 14.673 22.3418 14.2788 22.24 13.8846C22.1382 13.4904 21.7455 13.2568 21.3527 13.359C20.96 13.4612 20.7273 13.8554 20.8291 14.2496C20.9164 14.5708 21.2073 14.7898 21.5273 14.8044ZM20.4364 16.7462C20.5091 16.7462 20.5673 16.7462 20.6255 16.717C21.0182 16.6148 21.2509 16.2206 21.1491 15.8264C21.0473 15.4322 20.6546 15.1986 20.2618 15.3008C19.8691 15.403 19.6364 15.7972 19.7382 16.1914C19.8255 16.5126 20.1164 16.7316 20.4364 16.7462ZM19.68 18.8632C19.7527 18.8632 19.8109 18.8632 19.8691 18.834C20.2618 18.7318 20.4946 18.3376 20.3927 17.9434C20.2909 17.5492 19.8982 17.3156 19.5055 17.4178C19.1127 17.52 18.88 17.9142 18.9818 18.3084C19.0691 18.6296 19.3455 18.8632 19.68 18.8632ZM19.2873 21.1408C19.36 21.1408 19.4182 21.1408 19.4764 21.1116C19.8691 21.0094 20.1018 20.6152 20 20.221C19.8982 19.8268 19.5055 19.5932 19.1127 19.6954C18.72 19.7976 18.4873 20.1918 18.5891 20.586C18.6764 20.9072 18.9527 21.1262 19.2873 21.1408ZM19.2873 23.506C19.36 23.506 19.4182 23.506 19.4764 23.4768C19.8691 23.3746 20.1018 22.9804 20 22.5862C19.8982 22.192 19.5055 21.9584 19.1127 22.0606C18.72 22.1628 18.4873 22.557 18.5891 22.9512C18.6764 23.2724 18.9527 23.506 19.2873 23.506ZM19.68 25.7836C19.7527 25.7836 19.8109 25.7836 19.8691 25.7544C20.2618 25.6522 20.4946 25.258 20.3927 24.8638C20.2909 24.4696 19.8982 24.236 19.5055 24.3382C19.1127 24.4404 18.88 24.8346 18.9818 25.2288C19.0691 25.55 19.3455 25.769 19.68 25.7836ZM20.4364 27.9006C20.5091 27.9006 20.5673 27.9006 20.6255 27.8714C21.0182 27.7692 21.2509 27.375 21.1491 26.9808C21.0473 26.5866 20.6546 26.353 20.2618 26.4552C19.8691 26.5574 19.6364 26.9516 19.7382 27.3458C19.8255 27.667 20.1164 27.9006 20.4364 27.9006ZM21.5273 29.8424C21.6 29.8424 21.6582 29.8424 21.7164 29.8132C22.1091 29.711 22.3418 29.3168 22.24 28.9226C22.1382 28.5284 21.7455 28.2948 21.3527 28.397C20.96 28.4992 20.7273 28.8934 20.8291 29.2876C20.9164 29.6088 21.2073 29.8424 21.5273 29.8424ZM22.9091 31.5652C22.9818 31.5652 23.04 31.5652 23.0982 31.536C23.4909 31.4338 23.7236 31.0396 23.6218 30.6454C23.52 30.2512 23.1273 30.0176 22.7346 30.1198C22.3418 30.222 22.1091 30.6162 22.2109 31.0104C22.3127 31.3316 22.5891 31.5652 22.9091 31.5652ZM24.5673 33.0398C24.64 33.0398 24.6982 33.0398 24.7564 33.0106C25.1491 32.9084 25.3818 32.5142 25.28 32.12C25.1782 31.7258 24.7855 31.4922 24.3927 31.5944C24 31.6966 23.7673 32.0908 23.8691 32.485C23.9564 32.8062 24.2327 33.0252 24.5673 33.0398ZM26.4291 34.2224C26.5018 34.2224 26.56 34.2224 26.6182 34.1932C27.0109 34.091 27.2436 33.6968 27.1418 33.3026C27.04 32.9084 26.6473 32.6748 26.2546 32.777C25.8618 32.8792 25.6291 33.2734 25.7309 33.6676C25.8327 33.9888 26.1091 34.2078 26.4291 34.2224ZM28.4946 35.0838C28.5673 35.0838 28.6255 35.0838 28.6836 35.0546C29.0764 34.9524 29.3091 34.5582 29.2073 34.164C29.1055 33.7698 28.7127 33.5362 28.32 33.6384C27.9273 33.7406 27.6946 34.1348 27.7964 34.529C27.8982 34.8502 28.1746 35.0838 28.4946 35.0838ZM30.7346 35.5948C30.8073 35.5948 30.8655 35.5948 30.9236 35.5656C31.3164 35.4634 31.5491 35.0692 31.4473 34.675C31.3455 34.2808 30.9527 34.0472 30.56 34.1494C30.1673 34.2516 29.9346 34.6458 30.0364 35.04C30.1236 35.3612 30.4 35.5802 30.7346 35.5948ZM33.0764 35.7116C33.1491 35.7116 33.2073 35.7116 33.2655 35.6824C33.6582 35.5802 33.8909 35.186 33.7891 34.7918C33.6873 34.3976 33.2946 34.164 32.9018 34.2662C32.5091 34.3684 32.2764 34.7626 32.3782 35.1568C32.4655 35.478 32.7418 35.697 33.0764 35.7116ZM35.3891 35.4196C35.4618 35.4196 35.52 35.4196 35.5782 35.3904C35.9709 35.2882 36.2036 34.894 36.1018 34.4998C36 34.1056 35.6073 33.872 35.2146 33.9742C34.8218 34.0764 34.5891 34.4706 34.6909 34.8648C34.7782 35.186 35.0691 35.4196 35.3891 35.4196ZM37.5564 34.748C37.6291 34.748 37.6873 34.748 37.7455 34.7188C38.1382 34.6166 38.3709 34.2224 38.2691 33.8282C38.1673 33.434 37.7746 33.2004 37.3818 33.3026C36.9891 33.4048 36.7564 33.799 36.8582 34.1932C36.9455 34.529 37.2364 34.748 37.5564 34.748ZM39.5636 33.7406C39.6364 33.7406 39.6946 33.7406 39.7527 33.7114C40.1455 33.6092 40.3782 33.215 40.2764 32.8208C40.1746 32.4266 39.7818 32.193 39.3891 32.2952C38.9964 32.3974 38.7636 32.7916 38.8655 33.1858C38.9527 33.507 39.2291 33.7406 39.5636 33.7406ZM41.3527 32.412C41.4255 32.412 41.4836 32.412 41.5418 32.3828C41.9346 32.2806 42.1673 31.8864 42.0655 31.4922C41.9636 31.098 41.5709 30.8644 41.1782 30.9666C40.7855 31.0688 40.5527 31.463 40.6546 31.8572C40.7418 32.193 41.0182 32.412 41.3527 32.412ZM42.8946 30.8206C42.9673 30.8206 43.0255 30.8206 43.0836 30.7914C43.4764 30.6892 43.7091 30.295 43.6073 29.9008C43.5055 29.5066 43.1127 29.273 42.72 29.3752C42.3273 29.4774 42.0946 29.8716 42.1964 30.2658C42.2836 30.587 42.56 30.8206 42.8946 30.8206ZM44.1455 28.981C44.2182 28.981 44.2764 28.981 44.3346 28.9518C44.7273 28.8496 44.96 28.4554 44.8582 28.0612C44.7564 27.667 44.3636 27.4334 43.9709 27.5356C43.5782 27.6378 43.3455 28.032 43.4473 28.4262C43.5491 28.762 43.8255 28.981 44.1455 28.981ZM45.76 14.7168C45.8327 14.7168 45.8909 14.7168 45.9491 14.6876C46.3418 14.5854 46.5746 14.1912 46.4727 13.797C46.3709 13.4028 45.9782 13.1692 45.5855 13.2714C45.1927 13.3736 44.96 13.7678 45.0618 14.162C45.1491 14.4978 45.44 14.7168 45.76 14.7168ZM44.5382 12.9064C44.6109 12.9064 44.6691 12.9064 44.7273 12.8772C45.12 12.775 45.3527 12.3808 45.2509 11.9866C45.1491 11.5924 44.7564 11.3588 44.3636 11.461C43.9709 11.5632 43.7382 11.9574 43.84 12.3516C43.9418 12.6728 44.2182 12.9064 44.5382 12.9064ZM43.0836 11.2858C43.1564 11.2858 43.2146 11.2858 43.2727 11.2566C43.6655 11.1544 43.8982 10.7602 43.7964 10.366C43.6946 9.97179 43.3018 9.73819 42.9091 9.84039C42.5164 9.94259 42.2836 10.3368 42.3855 10.731C42.4727 11.0668 42.7491 11.2858 43.0836 11.2858ZM41.4109 9.89879C41.4836 9.89879 41.5418 9.89879 41.6 9.86959C41.9927 9.76739 42.2255 9.37319 42.1236 8.97899C42.0218 8.58479 41.6291 8.35119 41.2364 8.45339C40.8436 8.55559 40.6109 8.94979 40.7127 9.34399C40.8 9.66519 41.0764 9.89879 41.4109 9.89879ZM39.5491 8.74539C39.6218 8.74539 39.68 8.74539 39.7382 8.71619C40.1309 8.61399 40.3636 8.21979 40.2618 7.82559C40.16 7.43139 39.7673 7.19779 39.3746 7.29999C38.9818 7.40219 38.7491 7.79639 38.8509 8.19059C38.9382 8.52639 39.2146 8.74539 39.5491 8.74539ZM37.5127 7.88399C37.5855 7.88399 37.6436 7.88399 37.7018 7.85479C38.0946 7.75259 38.3273 7.35839 38.2255 6.96419C38.1236 6.56999 37.7309 6.33639 37.3382 6.43859C36.9455 6.54079 36.7127 6.93499 36.8146 7.32919C36.9018 7.65039 37.1782 7.86939 37.5127 7.88399ZM35.3455 7.31459C35.4182 7.31459 35.4764 7.31459 35.5346 7.28539C35.9273 7.18319 36.16 6.78899 36.0582 6.39479C35.9564 6.00059 35.5636 5.76699 35.1709 5.86919C34.7782 5.97139 34.5455 6.36559 34.6473 6.75979C34.7346 7.08099 35.0255 7.29999 35.3455 7.31459ZM33.0618 7.06639C33.1346 7.06639 33.1927 7.06639 33.2509 7.03719C33.6436 6.93499 33.8764 6.54079 33.7746 6.14659C33.6727 5.75239 33.28 5.51879 32.8873 5.62099C32.4946 5.72319 32.2618 6.11739 32.3636 6.51159C32.4509 6.83279 32.7418 7.05179 33.0618 7.06639ZM30.7636 7.16859C30.8364 7.16859 30.8946 7.16859 30.9527 7.13939C31.3455 7.03719 31.5782 6.64299 31.4764 6.24879C31.3746 5.85459 30.9818 5.62099 30.5891 5.72319C30.1964 5.82539 29.9636 6.21959 30.0655 6.61379C30.1527 6.93499 30.4291 7.15399 30.7636 7.16859ZM28.5527 7.59199C28.6255 7.59199 28.6836 7.59199 28.7418 7.56279C29.1346 7.46059 29.3673 7.06639 29.2655 6.67219C29.1636 6.27799 28.7709 6.04439 28.3782 6.14659C27.9855 6.24879 27.7527 6.64299 27.8546 7.03719C27.9418 7.37299 28.2182 7.59199 28.5527 7.59199ZM26.4727 8.33659C26.5455 8.33659 26.6036 8.33659 26.6618 8.30739C27.0546 8.20519 27.2873 7.81099 27.1855 7.41679C27.0836 7.02259 26.6909 6.78899 26.2982 6.89119C25.9055 6.99339 25.6727 7.38759 25.7746 7.78179C25.8618 8.10299 26.1382 8.33659 26.4727 8.33659ZM24.5382 9.35859C24.6109 9.35859 24.6691 9.35859 24.7273 9.32939C25.12 9.22719 25.3527 8.83299 25.2509 8.43879C25.1491 8.04459 24.7564 7.81099 24.3636 7.91319C23.9709 8.01539 23.7382 8.40959 23.84 8.80379C23.9273 9.12499 24.2182 9.35859 24.5382 9.35859ZM22.7927 10.6434C22.8655 10.6434 22.9236 10.6434 22.9818 10.6142C23.3746 10.512 23.6073 10.1178 23.5055 9.72359C23.4036 9.32939 23.0109 9.09579 22.6182 9.19799C22.2255 9.30019 21.9927 9.69439 22.0946 10.0886C22.1818 10.4098 22.4582 10.6288 22.7927 10.6434ZM21.2364 12.1472C21.3091 12.1472 21.3673 12.1472 21.4255 12.118C21.8182 12.0158 22.0509 11.6216 21.9491 11.2274C21.8473 10.8332 21.4546 10.5996 21.0618 10.7018C20.6691 10.804 20.4364 11.1982 20.5382 11.5924C20.6255 11.9136 20.9018 12.1472 21.2364 12.1472ZM19.9127 13.87C19.9855 13.87 20.0436 13.87 20.1018 13.8408C20.4946 13.7386 20.7273 13.3444 20.6255 12.9502C20.5236 12.556 20.1309 12.3224 19.7382 12.4246C19.3455 12.5268 19.1127 12.921 19.2146 13.3152C19.3018 13.6364 19.5782 13.87 19.9127 13.87ZM18.8364 15.768C18.9091 15.768 18.9673 15.768 19.0255 15.7388C19.4182 15.6366 19.6509 15.2424 19.5491 14.8482C19.4473 14.454 19.0546 14.2204 18.6618 14.3226C18.2691 14.4248 18.0364 14.819 18.1382 15.2132C18.2255 15.549 18.5164 15.768 18.8364 15.768ZM18.0364 17.8266C18.1091 17.8266 18.1673 17.8266 18.2255 17.7974C18.6182 17.6952 18.8509 17.301 18.7491 16.9068C18.6473 16.5126 18.2546 16.279 17.8618 16.3812C17.4691 16.4834 17.2364 16.8776 17.3382 17.2718C17.4255 17.6076 17.7164 17.8266 18.0364 17.8266ZM17.5418 20.0166C17.6146 20.0166 17.6727 20.0166 17.7309 19.9874C18.1236 19.8852 18.3564 19.491 18.2546 19.0968C18.1527 18.7026 17.76 18.469 17.3673 18.5712C16.9746 18.6734 16.7418 19.0676 16.8436 19.4618C16.9309 19.7976 17.2218 20.0166 17.5418 20.0166ZM17.3673 22.3234C17.44 22.3234 17.4982 22.3234 17.5564 22.2942C17.9491 22.192 18.1818 21.7978 18.08 21.4036C17.9782 21.0094 17.5855 20.7758 17.1927 20.878C16.8 20.9802 16.5673 21.3744 16.6691 21.7686C16.7564 22.0898 17.0473 22.3088 17.3673 22.3234ZM17.5418 24.6156C17.6146 24.6156 17.6727 24.6156 17.7309 24.5864C18.1236 24.4842 18.3564 24.09 18.2546 23.6958C18.1527 23.3016 17.76 23.068 17.3673 23.1702C16.9746 23.2724 16.7418 23.6666 16.8436 24.0608C16.9309 24.3966 17.2218 24.6156 17.5418 24.6156ZM18.0364 26.8056C18.1091 26.8056 18.1673 26.8056 18.2255 26.7764C18.6182 26.6742 18.8509 26.28 18.7491 25.8858C18.6473 25.4916 18.2546 25.258 17.8618 25.3602C17.4691 25.4624 17.2364 25.8566 17.3382 26.2508C17.4255 26.5866 17.7164 26.8056 18.0364 26.8056ZM18.8364 28.8642C18.9091 28.8642 18.9673 28.8642 19.0255 28.835C19.4182 28.7328 19.6509 28.3386 19.5491 27.9444C19.4473 27.5502 19.0546 27.3166 18.6618 27.4188C18.2691 27.521 18.0364 27.9152 18.1382 28.3094C18.2255 28.6452 18.5164 28.8642 18.8364 28.8642ZM19.9127 30.7768C19.9855 30.7768 20.0436 30.7768 20.1018 30.7476C20.4946 30.6454 20.7273 30.2512 20.6255 29.857C20.5236 29.4628 20.1309 29.2292 19.7382 29.3314C19.3455 29.4336 19.1127 29.8278 19.2146 30.222C19.3018 30.5432 19.5782 30.7622 19.9127 30.7768ZM21.2364 32.485C21.3091 32.485 21.3673 32.485 21.4255 32.4558C21.8182 32.3536 22.0509 31.9594 21.9491 31.5652C21.8473 31.171 21.4546 30.9374 21.0618 31.0396C20.6691 31.1418 20.4364 31.536 20.5382 31.9302C20.6255 32.266 20.9018 32.485 21.2364 32.485ZM22.7927 34.0034C22.8655 34.0034 22.9236 34.0034 22.9818 33.9742C23.3746 33.872 23.6073 33.4778 23.5055 33.0836C23.4036 32.6894 23.0109 32.4558 22.6182 32.558C22.2255 32.6602 21.9927 33.0544 22.0946 33.4486C22.1818 33.7698 22.4582 34.0034 22.7927 34.0034ZM24.5382 35.2882C24.6109 35.2882 24.6691 35.2882 24.7273 35.259C25.12 35.1568 25.3527 34.7626 25.2509 34.3684C25.1491 33.9742 24.7564 33.7406 24.3636 33.8428C23.9709 33.945 23.7382 34.3392 23.84 34.7334C23.9273 35.0546 24.2182 35.2736 24.5382 35.2882ZM26.4727 36.3102C26.5455 36.3102 26.6036 36.3102 26.6618 36.281C27.0546 36.1788 27.2873 35.7846 27.1855 35.3904C27.0836 34.9962 26.6909 34.7626 26.2982 34.8648C25.9055 34.967 25.6727 35.3612 25.7746 35.7554C25.8618 36.0766 26.1382 36.2956 26.4727 36.3102ZM28.5527 37.0402C28.6255 37.0402 28.6836 37.0402 28.7418 37.011C29.1346 36.9088 29.3673 36.5146 29.2655 36.1204C29.1636 35.7262 28.7709 35.4926 28.3782 35.5948C27.9855 35.697 27.7527 36.0912 27.8546 36.4854C27.9418 36.8212 28.2182 37.0402 28.5527 37.0402ZM30.7636 37.4782C30.8364 37.4782 30.8946 37.4782 30.9527 37.449C31.3455 37.3468 31.5782 36.9526 31.4764 36.5584C31.3746 36.1642 30.9818 35.9306 30.5891 36.0328C30.1964 36.135 29.9636 36.5292 30.0655 36.9234C30.1527 37.2446 30.4291 37.4782 30.7636 37.4782ZM33.0618 37.5804C33.1346 37.5804 33.1927 37.5804 33.2509 37.5512C33.6436 37.449 33.8764 37.0548 33.7746 36.6606C33.6727 36.2664 33.28 36.0328 32.8873 36.135C32.4946 36.2372 32.2618 36.6314 32.3636 37.0256C32.4509 37.3468 32.7418 37.5658 33.0618 37.5804ZM35.3455 37.3322C35.4182 37.3322 35.4764 37.3322 35.5346 37.303C35.9273 37.2008 36.16 36.8066 36.0582 36.4124C35.9564 36.0182 35.5636 35.7846 35.1709 35.8868C34.7782 35.989 34.5455 36.3832 34.6473 36.7774C34.7346 37.0986 35.0255 37.3322 35.3455 37.3322ZM37.5127 36.7628C37.5855 36.7628 37.6436 36.7628 37.7018 36.7336C38.0946 36.6314 38.3273 36.2372 38.2255 35.843C38.1236 35.4488 37.7309 35.2152 37.3382 35.3174C36.9455 35.4196 36.7127 35.8138 36.8146 36.208C36.9018 36.5292 37.1782 36.7482 37.5127 36.7628ZM39.5491 35.8868C39.6218 35.8868 39.68 35.8868 39.7382 35.8576C40.1309 35.7554 40.3636 35.3612 40.2618 34.967C40.16 34.5728 39.7673 34.3392 39.3746 34.4414C38.9818 34.5436 38.7491 34.9378 38.8509 35.332C38.9382 35.6678 39.2146 35.8868 39.5491 35.8868ZM41.4109 34.748C41.4836 34.748 41.5418 34.748 41.6 34.7188C41.9927 34.6166 42.2255 34.2224 42.1236 33.8282C42.0218 33.434 41.6291 33.2004 41.2364 33.3026C40.8436 33.4048 40.6109 33.799 40.7127 34.1932C40.8 34.5144 41.0764 34.7334 41.4109 34.748ZM43.0836 33.3464C43.1564 33.3464 43.2146 33.3464 43.2727 33.3172C43.6655 33.215 43.8982 32.8208 43.7964 32.4266C43.6946 32.0324 43.3018 31.7988 42.9091 31.901C42.5164 32.0032 42.2836 32.3974 42.3855 32.7916C42.4727 33.1274 42.7491 33.3464 43.0836 33.3464ZM44.5382 31.7404C44.6109 31.7404 44.6691 31.7404 44.7273 31.7112C45.12 31.609 45.3527 31.2148 45.2509 30.8206C45.1491 30.4264 44.7564 30.1928 44.3636 30.295C43.9709 30.3972 43.7382 30.7914 43.84 31.1856C43.9418 31.5068 44.2182 31.7258 44.5382 31.7404ZM45.76 29.9154C45.8327 29.9154 45.8909 29.9154 45.9491 29.8862C46.3418 29.784 46.5746 29.3898 46.4727 28.9956C46.3709 28.6014 45.9782 28.3678 45.5855 28.47C45.1927 28.5722 44.96 28.9664 45.0618 29.3606C45.1636 29.6964 45.44 29.9154 45.76 29.9154ZM47.3746 13.7824C47.4473 13.7824 47.5055 13.7824 47.5636 13.7532C47.9564 13.651 48.1891 13.2568 48.0873 12.8626C47.9855 12.4684 47.5927 12.2348 47.2 12.337C46.8073 12.4392 46.5746 12.8334 46.6764 13.2276C46.7636 13.5634 47.04 13.7824 47.3746 13.7824ZM46.1818 11.9866C46.2546 11.9866 46.3127 11.9866 46.3709 11.9574C46.7636 11.8552 46.9964 11.461 46.8946 11.0668C46.7927 10.6726 46.4 10.439 46.0073 10.5412C45.6146 10.6434 45.3818 11.0376 45.4836 11.4318C45.5709 11.753 45.8618 11.9866 46.1818 11.9866ZM44.7855 10.3514C44.8582 10.3514 44.9164 10.3514 44.9746 10.3222C45.3673 10.22 45.6 9.82579 45.4982 9.43159C45.3964 9.03739 45.0036 8.80379 44.6109 8.90599C44.2182 9.00819 43.9855 9.40239 44.0873 9.79659C44.1746 10.1324 44.4655 10.3514 44.7855 10.3514ZM43.2 8.92059C43.2727 8.92059 43.3309 8.92059 43.3891 8.89139C43.7818 8.78919 44.0146 8.39499 43.9127 8.00079C43.8109 7.60659 43.4182 7.37299 43.0255 7.47519C42.6327 7.57739 42.4 7.97159 42.5018 8.36579C42.5891 8.68699 42.8655 8.90599 43.2 8.92059ZM41.44 7.67959C41.5127 7.67959 41.5709 7.67959 41.6291 7.65039C42.0218 7.54819 42.2546 7.15399 42.1527 6.75979C42.0509 6.36559 41.6582 6.13199 41.2655 6.23419C40.8727 6.33639 40.64 6.73059 40.7418 7.12479C40.8291 7.44599 41.1055 7.67959 41.44 7.67959ZM39.52 6.67219C39.5927 6.67219 39.6509 6.67219 39.7091 6.64299C40.1018 6.54079 40.3346 6.14659 40.2327 5.75239C40.1309 5.35819 39.7382 5.12459 39.3455 5.22679C38.9527 5.32899 38.72 5.72319 38.8218 6.11739C38.9091 6.43859 39.2 6.65759 39.52 6.67219ZM37.4836 5.91299C37.5564 5.91299 37.6146 5.91299 37.6727 5.88379C38.0655 5.78159 38.2982 5.38739 38.1964 4.99319C38.0946 4.59899 37.7018 4.36539 37.3091 4.46759C36.9164 4.56979 36.6836 4.96399 36.7855 5.35819C36.8727 5.67939 37.1491 5.89839 37.4836 5.91299ZM35.3164 5.40199C35.3891 5.40199 35.4473 5.40199 35.5055 5.37279C35.8982 5.27059 36.1309 4.87639 36.0291 4.48219C35.9273 4.08799 35.5346 3.85439 35.1418 3.95659C34.7491 4.05879 34.5164 4.45299 34.6182 4.84719C34.7055 5.18299 34.9818 5.40199 35.3164 5.40199ZM33.0618 5.19759C33.1346 5.19759 33.1927 5.19759 33.2509 5.16839C33.6436 5.06619 33.8764 4.67199 33.7746 4.27779C33.6727 3.88359 33.28 3.64999 32.8873 3.75219C32.4946 3.85439 32.2618 4.24859 32.3636 4.64279C32.4509 4.96399 32.7273 5.19759 33.0618 5.19759ZM30.7782 5.28519C30.8509 5.28519 30.9091 5.28519 30.9673 5.25599C31.36 5.15379 31.5927 4.75959 31.4909 4.36539C31.3891 3.97119 30.9964 3.73759 30.6036 3.83979C30.2109 3.94199 29.9782 4.33619 30.08 4.73039C30.1673 5.05159 30.4582 5.27059 30.7782 5.28519ZM28.5818 5.66479C28.6546 5.66479 28.7127 5.66479 28.7709 5.63559C29.1636 5.53339 29.3964 5.13919 29.2946 4.74499C29.1927 4.35079 28.8 4.11719 28.4073 4.21939C28.0146 4.32159 27.7818 4.71579 27.8836 5.10999C27.9709 5.43119 28.2618 5.65019 28.5818 5.66479ZM26.5018 6.30719C26.5746 6.30719 26.6327 6.30719 26.6909 6.27799C27.0836 6.17579 27.3164 5.78159 27.2146 5.38739C27.1127 4.99319 26.72 4.75959 26.3273 4.86179C25.9346 4.96399 25.7018 5.35819 25.8036 5.75239C25.8909 6.07359 26.1673 6.30719 26.5018 6.30719ZM24.5382 7.19779C24.6109 7.19779 24.6691 7.19779 24.7273 7.16859C25.12 7.06639 25.3527 6.67219 25.2509 6.27799C25.1491 5.88379 24.7564 5.65019 24.3636 5.75239C23.9709 5.85459 23.7382 6.24879 23.84 6.64299C23.9273 6.97879 24.2036 7.19779 24.5382 7.19779ZM22.72 8.33659C22.7927 8.33659 22.8509 8.33659 22.9091 8.30739C23.3018 8.20519 23.5346 7.81099 23.4327 7.41679C23.3309 7.02259 22.9382 6.78899 22.5455 6.89119C22.1527 6.99339 21.92 7.38759 22.0218 7.78179C22.1091 8.10299 22.3855 8.33659 22.72 8.33659ZM21.0473 9.67979C21.12 9.67979 21.1782 9.67979 21.2364 9.65059C21.6291 9.54839 21.8618 9.15419 21.76 8.75999C21.6582 8.36579 21.2655 8.13219 20.8727 8.23439C20.48 8.33659 20.2473 8.73079 20.3491 9.12499C20.4509 9.44619 20.7273 9.67979 21.0473 9.67979ZM19.5782 11.2128C19.6509 11.2128 19.7091 11.2128 19.7673 11.1836C20.16 11.0814 20.3927 10.6872 20.2909 10.293C20.1891 9.89879 19.7964 9.66519 19.4036 9.76739C19.0109 9.86959 18.7782 10.2638 18.88 10.658C18.9673 10.9938 19.2436 11.2128 19.5782 11.2128ZM18.2982 12.9356C18.3709 12.9356 18.4291 12.9356 18.4873 12.9064C18.88 12.8042 19.1127 12.41 19.0109 12.0158C18.9091 11.6216 18.5164 11.388 18.1236 11.4902C17.7309 11.5924 17.4982 11.9866 17.6 12.3808C17.6873 12.702 17.9636 12.9356 18.2982 12.9356ZM17.2364 14.8044C17.3091 14.8044 17.3673 14.8044 17.4255 14.7752C17.8182 14.673 18.0509 14.2788 17.9491 13.8846C17.8473 13.4904 17.4546 13.2568 17.0618 13.359C16.6691 13.4612 16.4364 13.8554 16.5382 14.2496C16.6255 14.5854 16.9018 14.8044 17.2364 14.8044ZM16.4073 16.8192C16.48 16.8192 16.5382 16.8192 16.5964 16.79C16.9891 16.6878 17.2218 16.2936 17.12 15.8994C17.0182 15.5052 16.6255 15.2716 16.2327 15.3738C15.84 15.476 15.6073 15.8702 15.7091 16.2644C15.7964 16.5856 16.0873 16.8046 16.4073 16.8192ZM15.84 18.9508C15.9127 18.9508 15.9709 18.9508 16.0291 18.9216C16.4218 18.8194 16.6546 18.4252 16.5527 18.031C16.4509 17.6368 16.0582 17.4032 15.6655 17.5054C15.2727 17.6076 15.04 18.0018 15.1418 18.396C15.2291 18.7172 15.52 18.9362 15.84 18.9508ZM15.5491 21.17C15.6218 21.17 15.68 21.17 15.7382 21.1408C16.1309 21.0386 16.3636 20.6444 16.2618 20.2502C16.16 19.856 15.7673 19.6224 15.3746 19.7246C14.9818 19.8268 14.7491 20.221 14.8509 20.6152C14.9382 20.951 15.2146 21.17 15.5491 21.17ZM15.5491 23.4622C15.6218 23.4622 15.68 23.4622 15.7382 23.433C16.1309 23.3308 16.3636 22.9366 16.2618 22.5424C16.16 22.1482 15.7673 21.9146 15.3746 22.0168C14.9818 22.119 14.7491 22.5132 14.8509 22.9074C14.9382 23.2432 15.2146 23.4622 15.5491 23.4622ZM15.84 25.696C15.9127 25.696 15.9709 25.696 16.0291 25.6668C16.4218 25.5646 16.6546 25.1704 16.5527 24.7762C16.4509 24.382 16.0582 24.1484 15.6655 24.2506C15.2727 24.3528 15.04 24.747 15.1418 25.1412C15.2291 25.4624 15.52 25.696 15.84 25.696ZM16.4073 27.8276C16.48 27.8276 16.5382 27.8276 16.5964 27.7984C16.9891 27.6962 17.2218 27.302 17.12 26.9078C17.0182 26.5136 16.6255 26.28 16.2327 26.3822C15.84 26.4844 15.6073 26.8786 15.7091 27.2728C15.7964 27.594 16.0873 27.813 16.4073 27.8276ZM17.2364 29.8278C17.3091 29.8278 17.3673 29.8278 17.4255 29.7986C17.8182 29.6964 18.0509 29.3022 17.9491 28.908C17.8473 28.5138 17.4546 28.2802 17.0618 28.3824C16.6691 28.4846 16.4364 28.8788 16.5382 29.273C16.6255 29.6088 16.9018 29.8278 17.2364 29.8278ZM18.2982 31.7112C18.3709 31.7112 18.4291 31.7112 18.4873 31.682C18.88 31.5798 19.1127 31.1856 19.0109 30.7914C18.9091 30.3972 18.5164 30.1636 18.1236 30.2658C17.7309 30.368 17.4982 30.7622 17.6 31.1564C17.6873 31.4776 17.9636 31.6966 18.2982 31.7112ZM19.5782 33.4194C19.6509 33.4194 19.7091 33.4194 19.7673 33.3902C20.16 33.288 20.3927 32.8938 20.2909 32.4996C20.1891 32.1054 19.7964 31.8718 19.4036 31.974C19.0109 32.0762 18.7782 32.4704 18.88 32.8646C18.9673 33.2004 19.2436 33.4194 19.5782 33.4194ZM21.0473 34.967C21.12 34.967 21.1782 34.967 21.2364 34.9378C21.6291 34.8356 21.8618 34.4414 21.76 34.0472C21.6582 33.653 21.2655 33.4194 20.8727 33.5216C20.48 33.6238 20.2473 34.018 20.3491 34.4122C20.4509 34.7334 20.7273 34.9524 21.0473 34.967ZM22.72 36.3102C22.7927 36.3102 22.8509 36.3102 22.9091 36.281C23.3018 36.1788 23.5346 35.7846 23.4327 35.3904C23.3309 34.9962 22.9382 34.7626 22.5455 34.8648C22.1527 34.967 21.92 35.3612 22.0218 35.7554C22.1091 36.0766 22.3855 36.2956 22.72 36.3102ZM24.5382 37.4344C24.6109 37.4344 24.6691 37.4344 24.7273 37.4052C25.12 37.303 25.3527 36.9088 25.2509 36.5146C25.1491 36.1204 24.7564 35.8868 24.3636 35.989C23.9709 36.0912 23.7382 36.4854 23.84 36.8796C23.9273 37.2154 24.2036 37.4344 24.5382 37.4344ZM26.5018 38.3396C26.5746 38.3396 26.6327 38.3396 26.6909 38.3104C27.0836 38.2082 27.3164 37.814 27.2146 37.4198C27.1127 37.0256 26.72 36.792 26.3273 36.8942C25.9346 36.9964 25.7018 37.3906 25.8036 37.7848C25.8909 38.106 26.1673 38.325 26.5018 38.3396ZM28.5818 38.982C28.6546 38.982 28.7127 38.982 28.7709 38.9528C29.1636 38.8506 29.3964 38.4564 29.2946 38.0622C29.1927 37.668 28.8 37.4344 28.4073 37.5366C28.0146 37.6388 27.7818 38.033 27.8836 38.4272C27.9709 38.7484 28.2618 38.982 28.5818 38.982ZM30.7782 39.3616C30.8509 39.3616 30.9091 39.3616 30.9673 39.3324C31.36 39.2302 31.5927 38.836 31.4909 38.4418C31.3891 38.0476 30.9964 37.814 30.6036 37.9162C30.2109 38.0184 29.9782 38.4126 30.08 38.8068C30.1673 39.128 30.4582 39.347 30.7782 39.3616ZM33.0618 39.4492C33.1346 39.4492 33.1927 39.4492 33.2509 39.42C33.6436 39.3178 33.8764 38.9236 33.7746 38.5294C33.6727 38.1352 33.28 37.9016 32.8873 38.0038C32.4946 38.106 32.2618 38.5002 32.3636 38.8944C32.4509 39.2156 32.7273 39.4346 33.0618 39.4492ZM35.3164 39.2302C35.3891 39.2302 35.4473 39.2302 35.5055 39.201C35.8982 39.0988 36.1309 38.7046 36.0291 38.3104C35.9273 37.9162 35.5346 37.6826 35.1418 37.7848C34.7491 37.887 34.5164 38.2812 34.6182 38.6754C34.7055 38.9966 34.9818 39.2302 35.3164 39.2302ZM37.4836 38.7338C37.5564 38.7338 37.6146 38.7338 37.6727 38.7046C38.0655 38.6024 38.2982 38.2082 38.1964 37.814C38.0946 37.4198 37.7018 37.1862 37.3091 37.2884C36.9164 37.3906 36.6836 37.7848 36.7855 38.179C36.8727 38.5002 37.1491 38.7338 37.4836 38.7338ZM39.52 37.9746C39.5927 37.9746 39.6509 37.9746 39.7091 37.9454C40.1018 37.8432 40.3346 37.449 40.2327 37.0548C40.1309 36.6606 39.7382 36.427 39.3455 36.5292C38.9527 36.6314 38.72 37.0256 38.8218 37.4198C38.9091 37.741 39.2 37.96 39.52 37.9746ZM41.44 36.9672C41.5127 36.9672 41.5709 36.9672 41.6291 36.938C42.0218 36.8358 42.2546 36.4416 42.1527 36.0474C42.0509 35.6532 41.6582 35.4196 41.2655 35.5218C40.8727 35.624 40.64 36.0182 40.7418 36.4124C40.8291 36.7336 41.1055 36.9526 41.44 36.9672ZM43.2 35.7262C43.2727 35.7262 43.3309 35.7262 43.3891 35.697C43.7818 35.5948 44.0146 35.2006 43.9127 34.8064C43.8109 34.4122 43.4182 34.1786 43.0255 34.2808C42.6327 34.383 42.4 34.7772 42.5018 35.1714C42.5891 35.4926 42.8655 35.7262 43.2 35.7262ZM44.7855 34.2808C44.8582 34.2808 44.9164 34.2808 44.9746 34.2516C45.3673 34.1494 45.6 33.7552 45.4982 33.361C45.3964 32.9668 45.0036 32.7332 44.6109 32.8354C44.2182 32.9376 43.9855 33.3318 44.0873 33.726C44.1746 34.0618 44.4655 34.2808 44.7855 34.2808ZM46.1818 32.6602C46.2546 32.6602 46.3127 32.6602 46.3709 32.631C46.7636 32.5288 46.9964 32.1346 46.8946 31.7404C46.7927 31.3462 46.4 31.1126 46.0073 31.2148C45.6146 31.317 45.3818 31.7112 45.4836 32.1054C45.5709 32.4266 45.8618 32.6456 46.1818 32.6602ZM47.3746 30.8498C47.4473 30.8498 47.5055 30.8498 47.5636 30.8206C47.9564 30.7184 48.1891 30.3242 48.0873 29.93C47.9855 29.5358 47.5927 29.3022 47.2 29.4044C46.8073 29.5066 46.5746 29.9008 46.6764 30.295C46.7636 30.6308 47.0546 30.8498 47.3746 30.8498ZM48.9891 12.848C49.0473 12.848 49.12 12.848 49.1782 12.8334C49.5709 12.7312 49.8036 12.337 49.7018 11.9428C49.6 11.5486 49.2073 11.315 48.8146 11.4172C48.4218 11.5194 48.1891 11.9136 48.2909 12.3078C48.3782 12.629 48.6546 12.848 48.9891 12.848ZM47.8255 11.0668C47.8982 11.0668 47.9564 11.0668 48.0146 11.0376C48.4073 10.9354 48.64 10.5412 48.5382 10.147C48.4364 9.75279 48.0436 9.51919 47.6509 9.62139C47.2582 9.72359 47.0255 10.1178 47.1273 10.512C47.2146 10.8332 47.4909 11.0668 47.8255 11.0668ZM46.4727 9.43159C46.5455 9.43159 46.6036 9.43159 46.6618 9.40239C47.0546 9.30019 47.2873 8.90599 47.1855 8.51179C47.0836 8.11759 46.6909 7.88399 46.2982 7.98619C45.9055 8.08839 45.6727 8.48259 45.7746 8.87679C45.8618 9.19799 46.1527 9.41699 46.4727 9.43159ZM44.96 7.94239C45.0327 7.94239 45.0909 7.94239 45.1491 7.91319C45.5418 7.81099 45.7746 7.41679 45.6727 7.02259C45.5709 6.62839 45.1782 6.39479 44.7855 6.49699C44.3927 6.59919 44.16 6.99339 44.2618 7.38759C44.3491 7.72339 44.6255 7.94239 44.96 7.94239ZM43.2727 6.64299C43.3455 6.64299 43.4036 6.64299 43.4618 6.61379C43.8546 6.51159 44.0873 6.11739 43.9855 5.72319C43.8836 5.32899 43.4909 5.09539 43.0982 5.19759C42.7055 5.29979 42.4727 5.69399 42.5746 6.08819C42.6618 6.42399 42.9382 6.64299 43.2727 6.64299ZM41.4546 5.53339C41.5273 5.53339 41.5855 5.53339 41.6436 5.50419C42.0364 5.40199 42.2691 5.00779 42.1673 4.61359C42.0655 4.21939 41.6727 3.98579 41.28 4.08799C40.8873 4.19019 40.6546 4.58439 40.7564 4.97859C40.8436 5.31439 41.12 5.53339 41.4546 5.53339ZM39.5055 4.64279C39.5782 4.64279 39.6364 4.64279 39.6946 4.61359C40.0873 4.51139 40.32 4.11719 40.2182 3.72299C40.1164 3.32879 39.7236 3.09519 39.3309 3.19739C38.9382 3.29959 38.7055 3.69379 38.8073 4.08799C38.8946 4.40919 39.1855 4.62819 39.5055 4.64279ZM37.44 3.95659C37.5127 3.95659 37.5709 3.95659 37.6291 3.92739C38.0218 3.82519 38.2546 3.43099 38.1527 3.03679C38.0509 2.64259 37.6582 2.40899 37.2655 2.51119C36.8727 2.61339 36.64 3.00759 36.7418 3.40179C36.8436 3.72299 37.12 3.95659 37.44 3.95659ZM35.2873 3.51859C35.36 3.51859 35.4182 3.51859 35.4764 3.48939C35.8691 3.38719 36.1018 2.99299 36 2.59879C35.8982 2.20459 35.5055 1.97099 35.1127 2.07319C34.72 2.17539 34.4873 2.56959 34.5891 2.96379C34.6764 3.28499 34.9673 3.50399 35.2873 3.51859ZM33.0618 3.32879C33.1346 3.32879 33.1927 3.32879 33.2509 3.29959C33.6436 3.19739 33.8764 2.80319 33.7746 2.40899C33.6727 2.01479 33.28 1.78119 32.8873 1.88339C32.4946 1.98559 32.2618 2.37979 32.3636 2.77399C32.4509 3.09519 32.7273 3.32879 33.0618 3.32879ZM30.8073 3.40179C30.88 3.40179 30.9382 3.40179 30.9964 3.37259C31.3891 3.27039 31.6218 2.87619 31.52 2.48199C31.4182 2.08779 31.0255 1.85419 30.6327 1.95639C30.24 2.05859 30.0073 2.45279 30.1091 2.84699C30.1964 3.16819 30.4727 3.40179 30.8073 3.40179ZM28.6255 3.73759C28.6982 3.73759 28.7564 3.73759 28.8146 3.70839C29.2073 3.60619 29.44 3.21199 29.3382 2.81779C29.2364 2.42359 28.8436 2.18999 28.4509 2.29219C28.0582 2.39439 27.8255 2.78859 27.9273 3.18279C28.0146 3.50399 28.2909 3.73759 28.6255 3.73759ZM26.5309 4.30699C26.6036 4.30699 26.6618 4.30699 26.72 4.27779C27.1127 4.17559 27.3455 3.78139 27.2436 3.38719C27.1418 2.99299 26.7491 2.75939 26.3564 2.86159C25.9636 2.96379 25.7309 3.35799 25.8327 3.75219C25.92 4.08799 26.1964 4.30699 26.5309 4.30699ZM24.5382 5.10999C24.6109 5.10999 24.6691 5.10999 24.7273 5.08079C25.12 4.97859 25.3527 4.58439 25.2509 4.19019C25.1491 3.79599 24.7564 3.56239 24.3636 3.66459C23.9709 3.76679 23.7382 4.16099 23.84 4.55519C23.9273 4.87639 24.2182 5.10999 24.5382 5.10999ZM22.6764 6.13199C22.7491 6.13199 22.8073 6.13199 22.8655 6.10279C23.2582 6.00059 23.4909 5.60639 23.3891 5.21219C23.2873 4.81799 22.8946 4.58439 22.5018 4.68659C22.1091 4.78879 21.8764 5.18299 21.9782 5.57719C22.0655 5.89839 22.3418 6.11739 22.6764 6.13199ZM20.9309 7.32919C21.0036 7.32919 21.0618 7.32919 21.12 7.29999C21.5127 7.19779 21.7455 6.80359 21.6436 6.40939C21.5418 6.01519 21.1491 5.78159 20.7564 5.88379C20.3636 5.98599 20.1309 6.38019 20.2327 6.77439C20.3346 7.11019 20.6109 7.32919 20.9309 7.32919ZM19.3455 8.73079C19.4182 8.73079 19.4764 8.73079 19.5346 8.70159C19.9273 8.59939 20.16 8.20519 20.0582 7.81099C19.9564 7.41679 19.5636 7.18319 19.1709 7.28539C18.7782 7.38759 18.5455 7.78179 18.6473 8.17599C18.7346 8.49719 19.0255 8.71619 19.3455 8.73079ZM17.9346 10.293C18.0073 10.293 18.0655 10.293 18.1236 10.2638C18.5164 10.1616 18.7491 9.76739 18.6473 9.37319C18.5455 8.97899 18.1527 8.74539 17.76 8.84759C17.3673 8.94979 17.1346 9.34399 17.2364 9.73819C17.3236 10.0594 17.6 10.2784 17.9346 10.293ZM16.6836 12.0012C16.7564 12.0012 16.8146 12.0012 16.8727 11.972C17.2655 11.8698 17.4982 11.4756 17.3964 11.0814C17.2946 10.6872 16.9018 10.4536 16.5091 10.5558C16.1164 10.658 15.8836 11.0522 15.9855 11.4464C16.0727 11.7676 16.3491 12.0012 16.6836 12.0012ZM15.6364 13.8554C15.7091 13.8554 15.7673 13.8554 15.8255 13.8262C16.2182 13.724 16.4509 13.3298 16.3491 12.9356C16.2473 12.5414 15.8546 12.3078 15.4618 12.41C15.0691 12.5122 14.8364 12.9064 14.9382 13.3006C15.0255 13.6218 15.3018 13.8408 15.6364 13.8554ZM14.7927 15.8264C14.8655 15.8264 14.9236 15.8264 14.9818 15.7972C15.3746 15.695 15.6073 15.3008 15.5055 14.9066C15.4036 14.5124 15.0109 14.2788 14.6182 14.381C14.2255 14.4832 13.9927 14.8774 14.0946 15.2716C14.1818 15.5928 14.4582 15.8118 14.7927 15.8264ZM14.1673 17.8996C14.24 17.8996 14.2982 17.8996 14.3564 17.8704C14.7491 17.7682 14.9818 17.374 14.88 16.9798C14.7782 16.5856 14.3855 16.352 13.9927 16.4542C13.6 16.5564 13.3673 16.9506 13.4691 17.3448C13.5564 17.666 13.8327 17.8996 14.1673 17.8996ZM13.7746 20.075C13.8473 20.075 13.9055 20.075 13.9636 20.0458C14.3564 19.9436 14.5891 19.5494 14.4873 19.1552C14.3855 18.761 13.9927 18.5274 13.6 18.6296C13.2073 18.7318 12.9746 19.126 13.0764 19.5202C13.1636 19.8414 13.4546 20.0604 13.7746 20.075ZM13.6436 22.3234C13.7164 22.3234 13.7746 22.3234 13.8327 22.2942C14.2255 22.192 14.4582 21.7978 14.3564 21.4036C14.2546 21.0094 13.8618 20.7758 13.4691 20.878C13.0764 20.9802 12.8436 21.3744 12.9455 21.7686C13.0327 22.0898 13.3236 22.3088 13.6436 22.3234ZM13.7746 24.5718C13.8473 24.5718 13.9055 24.5718 13.9636 24.5426C14.3564 24.4404 14.5891 24.0462 14.4873 23.652C14.3855 23.2578 13.9927 23.0242 13.6 23.1264C13.2073 23.2286 12.9746 23.6228 13.0764 24.017C13.1636 24.3382 13.4546 24.5718 13.7746 24.5718ZM14.1673 26.7472C14.24 26.7472 14.2982 26.7472 14.3564 26.718C14.7491 26.6158 14.9818 26.2216 14.88 25.8274C14.7782 25.4332 14.3855 25.1996 13.9927 25.3018C13.6 25.404 13.3673 25.7982 13.4691 26.1924C13.5564 26.5136 13.8327 26.7326 14.1673 26.7472ZM14.7927 28.8204C14.8655 28.8204 14.9236 28.8204 14.9818 28.7912C15.3746 28.689 15.6073 28.2948 15.5055 27.9006C15.4036 27.5064 15.0109 27.2728 14.6182 27.375C14.2255 27.4772 13.9927 27.8714 14.0946 28.2656C14.1818 28.5868 14.4582 28.8204 14.7927 28.8204ZM15.6364 30.7914C15.7091 30.7914 15.7673 30.7914 15.8255 30.7622C16.2182 30.66 16.4509 30.2658 16.3491 29.8716C16.2473 29.4774 15.8546 29.2438 15.4618 29.346C15.0691 29.4482 14.8364 29.8424 14.9382 30.2366C15.0255 30.5578 15.3018 30.7914 15.6364 30.7914ZM16.6836 32.6456C16.7564 32.6456 16.8146 32.6456 16.8727 32.6164C17.2655 32.5142 17.4982 32.12 17.3964 31.7258C17.2946 31.3316 16.9018 31.098 16.5091 31.2002C16.1164 31.3024 15.8836 31.6966 15.9855 32.0908C16.0727 32.412 16.3491 32.631 16.6836 32.6456ZM17.9346 34.3538C18.0073 34.3538 18.0655 34.3538 18.1236 34.3246C18.5164 34.2224 18.7491 33.8282 18.6473 33.434C18.5455 33.0398 18.1527 32.8062 17.76 32.9084C17.3673 33.0106 17.1346 33.4048 17.2364 33.799C17.3236 34.1202 17.6 34.3538 17.9346 34.3538ZM19.3455 35.916C19.4182 35.916 19.4764 35.916 19.5346 35.8868C19.9273 35.7846 20.16 35.3904 20.0582 34.9962C19.9564 34.602 19.5636 34.3684 19.1709 34.4706C18.7782 34.5728 18.5455 34.967 18.6473 35.3612C18.7346 35.6824 19.0255 35.9014 19.3455 35.916ZM20.9309 37.303C21.0036 37.303 21.0618 37.303 21.12 37.2738C21.5127 37.1716 21.7455 36.7774 21.6436 36.3832C21.5418 35.989 21.1491 35.7554 20.7564 35.8576C20.3636 35.9598 20.1309 36.354 20.2327 36.7482C20.3346 37.0694 20.6109 37.303 20.9309 37.303ZM22.6764 38.5148C22.7491 38.5148 22.8073 38.5148 22.8655 38.4856C23.2582 38.3834 23.4909 37.9892 23.3891 37.595C23.2873 37.2008 22.8946 36.9672 22.5018 37.0694C22.1091 37.1716 21.8764 37.5658 21.9782 37.96C22.0655 38.2812 22.3418 38.5148 22.6764 38.5148ZM24.5382 39.5368C24.6109 39.5368 24.6691 39.5368 24.7273 39.5076C25.12 39.4054 25.3527 39.0112 25.2509 38.617C25.1491 38.2228 24.7564 37.9892 24.3636 38.0914C23.9709 38.1936 23.7382 38.5878 23.84 38.982C23.9273 39.3032 24.2182 39.5222 24.5382 39.5368ZM26.5309 40.3252C26.6036 40.3252 26.6618 40.3252 26.72 40.296C27.1127 40.1938 27.3455 39.7996 27.2436 39.4054C27.1418 39.0112 26.7491 38.7776 26.3564 38.8798C25.9636 38.982 25.7309 39.3762 25.8327 39.7704C25.92 40.1062 26.1964 40.3252 26.5309 40.3252ZM28.6255 40.9092C28.6982 40.9092 28.7564 40.9092 28.8146 40.88C29.2073 40.7778 29.44 40.3836 29.3382 39.9894C29.2364 39.5952 28.8436 39.3616 28.4509 39.4638C28.0582 39.566 27.8255 39.9602 27.9273 40.3544C28.0146 40.6756 28.2909 40.8946 28.6255 40.9092ZM30.8073 41.245C30.88 41.245 30.9382 41.245 30.9964 41.2158C31.3891 41.1136 31.6218 40.7194 31.52 40.3252C31.4182 39.931 31.0255 39.6974 30.6327 39.7996C30.24 39.9018 30.0073 40.296 30.1091 40.6902C30.1964 41.0114 30.4727 41.2304 30.8073 41.245ZM33.0618 41.318C33.1346 41.318 33.1927 41.318 33.2509 41.2888C33.6436 41.1866 33.8764 40.7924 33.7746 40.3982C33.6727 40.004 33.28 39.7704 32.8873 39.8726C32.4946 39.9748 32.2618 40.369 32.3636 40.7632C32.4509 41.0844 32.7273 41.3034 33.0618 41.318ZM35.2873 41.1282C35.36 41.1282 35.4182 41.1282 35.4764 41.099C35.8691 40.9968 36.1018 40.6026 36 40.2084C35.8982 39.8142 35.5055 39.5806 35.1127 39.6828C34.72 39.785 34.4873 40.1792 34.5891 40.5734C34.6764 40.8946 34.9673 41.1136 35.2873 41.1282ZM37.44 40.6902C37.5127 40.6902 37.5709 40.6902 37.6291 40.661C38.0218 40.5588 38.2546 40.1646 38.1527 39.7704C38.0509 39.3762 37.6582 39.1426 37.2655 39.2448C36.8727 39.347 36.64 39.7412 36.7418 40.1354C36.8436 40.4566 37.12 40.6756 37.44 40.6902ZM39.5055 40.004C39.5782 40.004 39.6364 40.004 39.6946 39.9748C40.0873 39.8726 40.32 39.4784 40.2182 39.0842C40.1164 38.69 39.7236 38.4564 39.3309 38.5586C38.9382 38.6608 38.7055 39.055 38.8073 39.4492C38.8946 39.7704 39.1855 40.004 39.5055 40.004ZM41.4546 39.0988C41.5273 39.0988 41.5855 39.0988 41.6436 39.0696C42.0364 38.9674 42.2691 38.5732 42.1673 38.179C42.0655 37.7848 41.6727 37.5512 41.28 37.6534C40.8873 37.7556 40.6546 38.1498 40.7564 38.544C40.8436 38.8798 41.12 39.0988 41.4546 39.0988ZM43.2727 37.9892C43.3455 37.9892 43.4036 37.9892 43.4618 37.96C43.8546 37.8578 44.0873 37.4636 43.9855 37.0694C43.8836 36.6752 43.4909 36.4416 43.0982 36.5438C42.7055 36.646 42.4727 37.0402 42.5746 37.4344C42.6618 37.7702 42.9382 37.9892 43.2727 37.9892ZM44.96 36.6898C45.0327 36.6898 45.0909 36.6898 45.1491 36.6606C45.5418 36.5584 45.7746 36.1642 45.6727 35.77C45.5709 35.3758 45.1782 35.1422 44.7855 35.2444C44.3927 35.3466 44.16 35.7408 44.2618 36.135C44.3491 36.4708 44.6255 36.6898 44.96 36.6898ZM46.4727 35.2152C46.5455 35.2152 46.6036 35.2152 46.6618 35.186C47.0546 35.0838 47.2873 34.6896 47.1855 34.2954C47.0836 33.9012 46.6909 33.6676 46.2982 33.7698C45.9055 33.872 45.6727 34.2662 45.7746 34.6604C45.8618 34.9816 46.1527 35.2152 46.4727 35.2152ZM47.8255 33.58C47.8982 33.58 47.9564 33.58 48.0146 33.5508C48.4073 33.4486 48.64 33.0544 48.5382 32.6602C48.4364 32.266 48.0436 32.0324 47.6509 32.1346C47.2582 32.2368 47.0255 32.631 47.1273 33.0252C47.2146 33.3464 47.4909 33.5654 47.8255 33.58ZM48.9891 31.7842C49.0618 31.7842 49.12 31.7842 49.1782 31.755C49.5709 31.6528 49.8036 31.2586 49.7018 30.8644C49.6 30.4702 49.2073 30.2366 48.8146 30.3388C48.4218 30.441 48.1891 30.8352 48.2909 31.2294C48.3782 31.5652 48.6691 31.7842 48.9891 31.7842ZM50.6036 11.9282C50.6764 11.9282 50.7346 11.9282 50.7927 11.899C51.1855 11.7968 51.4182 11.4026 51.3164 11.0084C51.2146 10.6142 50.8218 10.3806 50.4291 10.4828C50.0364 10.585 49.8036 10.9792 49.9055 11.3734C49.9927 11.6946 50.2691 11.9136 50.6036 11.9282ZM49.4546 10.147C49.5273 10.147 49.5855 10.147 49.6436 10.1178C50.0364 10.0156 50.2691 9.62139 50.1673 9.22719C50.0655 8.83299 49.6727 8.59939 49.28 8.70159C48.8873 8.80379 48.6546 9.19799 48.7564 9.59219C48.8436 9.91339 49.1346 10.147 49.4546 10.147ZM48.1455 8.49719C48.2182 8.49719 48.2764 8.49719 48.3346 8.46799C48.7273 8.36579 48.96 7.97159 48.8582 7.57739C48.7564 7.18319 48.3636 6.94959 47.9709 7.05179C47.5782 7.15399 47.3455 7.54819 47.4473 7.94239C47.5346 8.27819 47.8255 8.49719 48.1455 8.49719ZM46.6764 6.99339C46.7491 6.99339 46.8073 6.99339 46.8655 6.96419C47.2582 6.86199 47.4909 6.46779 47.3891 6.07359C47.2873 5.67939 46.8946 5.44579 46.5018 5.54799C46.1091 5.65019 45.8764 6.04439 45.9782 6.43859C46.0655 6.77439 46.3564 6.99339 46.6764 6.99339ZM45.0618 5.65019C45.1346 5.65019 45.1927 5.65019 45.2509 5.62099C45.6436 5.51879 45.8764 5.12459 45.7746 4.73039C45.6727 4.33619 45.28 4.10259 44.8873 4.20479C44.4946 4.30699 44.2618 4.70119 44.3636 5.09539C44.4655 5.41659 44.7418 5.63559 45.0618 5.65019ZM43.3309 4.46759C43.4036 4.46759 43.4618 4.46759 43.52 4.43839C43.9127 4.33619 44.1455 3.94199 44.0436 3.54779C43.9418 3.15359 43.5491 2.91999 43.1564 3.02219C42.7636 3.12439 42.5309 3.51859 42.6327 3.91279C42.72 4.23399 42.9964 4.45299 43.3309 4.46759ZM41.4691 3.46019C41.5418 3.46019 41.6 3.46019 41.6582 3.43099C42.0509 3.32879 42.2836 2.93459 42.1818 2.54039C42.08 2.14619 41.6873 1.91259 41.2946 2.01479C40.9018 2.11699 40.6691 2.51119 40.7709 2.90539C40.8582 3.22659 41.1346 3.44559 41.4691 3.46019ZM39.4909 2.64259C39.5636 2.64259 39.6218 2.64259 39.68 2.61339C40.0727 2.51119 40.3055 2.11699 40.2036 1.72279C40.1018 1.32859 39.7091 1.09499 39.3164 1.19719C38.9236 1.29939 38.6909 1.69359 38.7927 2.08779C38.88 2.40899 39.1709 2.62799 39.4909 2.64259ZM37.4255 2.02939C37.4982 2.02939 37.5564 2.02939 37.6146 2.00019C38.0073 1.89799 38.24 1.50379 38.1382 1.10959C38.0364 0.715386 37.6436 0.481786 37.2509 0.583986C36.8582 0.686186 36.6255 1.08039 36.7273 1.47459C36.8146 1.79579 37.0909 2.01479 37.4255 2.02939ZM35.2727 1.63519C35.3455 1.63519 35.4036 1.63519 35.4618 1.60599C35.8546 1.50379 36.0873 1.10959 35.9855 0.715386C35.8836 0.321186 35.4909 0.0875862 35.0982 0.189786C34.7055 0.291986 34.4727 0.686186 34.5746 1.08039C34.6618 1.40159 34.9527 1.62059 35.2727 1.63519ZM33.0473 1.45999C33.12 1.45999 33.1782 1.45999 33.2364 1.43079C33.6291 1.32859 33.8618 0.934386 33.76 0.540186C33.6582 0.145986 33.2655 -0.0876138 32.8727 0.0145862C32.48 0.116786 32.2473 0.510986 32.3491 0.905186C32.4364 1.22639 32.7273 1.45999 33.0473 1.45999ZM30.8218 1.53299C30.8946 1.53299 30.9527 1.53299 31.0109 1.50379C31.4036 1.40159 31.6364 1.00739 31.5346 0.613186C31.4327 0.218986 31.04 -0.0146138 30.6473 0.0875862C30.2546 0.189786 30.0218 0.583986 30.1236 0.978186C30.2109 1.29939 30.4873 1.51839 30.8218 1.53299ZM28.64 1.82499C28.7127 1.82499 28.7709 1.82499 28.8291 1.79579C29.2218 1.69359 29.4546 1.29939 29.3527 0.905186C29.2509 0.510986 28.8582 0.277386 28.4655 0.379586C28.0727 0.481786 27.84 0.875986 27.9418 1.27019C28.0291 1.59139 28.32 1.82499 28.64 1.82499ZM26.5455 2.33599C26.6182 2.33599 26.6764 2.33599 26.7346 2.30679C27.1273 2.20459 27.36 1.81039 27.2582 1.41619C27.1564 1.02199 26.7636 0.788386 26.3709 0.890586C25.9782 0.992786 25.7455 1.38699 25.8473 1.78119C25.9491 2.11699 26.2255 2.33599 26.5455 2.33599ZM24.5527 3.06599C24.6255 3.06599 24.6836 3.06599 24.7418 3.03679C25.1346 2.93459 25.3673 2.54039 25.2655 2.14619C25.1636 1.75199 24.7709 1.51839 24.3782 1.62059C23.9855 1.72279 23.7527 2.11699 23.8546 2.51119C23.9418 2.83239 24.2182 3.06599 24.5527 3.06599ZM22.6473 3.98579C22.72 3.98579 22.7782 3.98579 22.8364 3.95659C23.2291 3.85439 23.4618 3.46019 23.36 3.06599C23.2582 2.67179 22.8655 2.43819 22.4727 2.54039C22.08 2.64259 21.8473 3.03679 21.9491 3.43099C22.0364 3.75219 22.3127 3.97119 22.6473 3.98579ZM20.8582 5.08079C20.9309 5.08079 20.9891 5.08079 21.0473 5.05159C21.44 4.94939 21.6727 4.55519 21.5709 4.16099C21.4691 3.76679 21.0764 3.53319 20.6836 3.63539C20.2909 3.73759 20.0582 4.13179 20.16 4.52599C20.2473 4.84719 20.5236 5.08079 20.8582 5.08079ZM19.1855 6.35099C19.2582 6.35099 19.3164 6.35099 19.3746 6.32179C19.7673 6.21959 20 5.82539 19.8982 5.43119C19.7964 5.03699 19.4036 4.80339 19.0109 4.90559C18.6182 5.00779 18.3855 5.40199 18.4873 5.79619C18.5746 6.11739 18.8655 6.35099 19.1855 6.35099ZM17.6582 7.78179C17.7309 7.78179 17.7891 7.78179 17.8473 7.75259C18.24 7.65039 18.4727 7.25619 18.3709 6.86199C18.2691 6.46779 17.8764 6.23419 17.4836 6.33639C17.0909 6.43859 16.8582 6.83279 16.96 7.22699C17.0473 7.54819 17.3382 7.76719 17.6582 7.78179ZM16.2909 9.35859C16.3636 9.35859 16.4218 9.35859 16.48 9.32939C16.8727 9.22719 17.1055 8.83299 17.0036 8.43879C16.9018 8.04459 16.5091 7.81099 16.1164 7.91319C15.7236 8.01539 15.4909 8.40959 15.5927 8.80379C15.68 9.12499 15.9564 9.34399 16.2909 9.35859ZM15.0691 11.0668C15.1418 11.0668 15.2 11.0668 15.2582 11.0376C15.6509 10.9354 15.8836 10.5412 15.7818 10.147C15.68 9.75279 15.2873 9.51919 14.8946 9.62139C14.5018 9.72359 14.2691 10.1178 14.3709 10.512C14.4582 10.8332 14.7346 11.0522 15.0691 11.0668ZM14.0218 12.8918C14.0946 12.8918 14.1527 12.8918 14.2109 12.8626C14.6036 12.7604 14.8364 12.3662 14.7346 11.972C14.6327 11.5778 14.24 11.3442 13.8473 11.4464C13.4546 11.5486 13.2218 11.9428 13.3236 12.337C13.4109 12.6582 13.7018 12.8918 14.0218 12.8918ZM13.1636 14.8336C13.2364 14.8336 13.2946 14.8336 13.3527 14.8044C13.7455 14.7022 13.9782 14.308 13.8764 13.9138C13.7746 13.5196 13.3818 13.286 12.9891 13.3882C12.5964 13.4904 12.3636 13.8846 12.4655 14.2788C12.5527 14.6 12.8436 14.8336 13.1636 14.8336ZM12.5091 16.8776C12.5818 16.8776 12.64 16.8776 12.6982 16.8484C13.0909 16.7462 13.3236 16.352 13.2218 15.9578C13.12 15.5636 12.7273 15.33 12.3346 15.4322C11.9418 15.5344 11.7091 15.9286 11.8109 16.3228C11.8982 16.644 12.1746 16.863 12.5091 16.8776ZM12.0436 18.9946C12.1164 18.9946 12.1746 18.9946 12.2327 18.9654C12.6255 18.8632 12.8582 18.469 12.7564 18.0748C12.6546 17.6806 12.2618 17.447 11.8691 17.5492C11.4764 17.6514 11.2436 18.0456 11.3455 18.4398C11.4327 18.761 11.7236 18.9946 12.0436 18.9946ZM11.8109 21.1992C11.8836 21.1992 11.9418 21.1992 12 21.17C12.3927 21.0678 12.6255 20.6736 12.5236 20.2794C12.4218 19.8852 12.0291 19.6516 11.6364 19.7538C11.2436 19.856 11.0109 20.2502 11.1127 20.6444C11.2146 20.9656 11.4909 21.1992 11.8109 21.1992ZM11.8109 23.4476C11.8836 23.4476 11.9418 23.4476 12 23.4184C12.3927 23.3162 12.6255 22.922 12.5236 22.5278C12.4218 22.1336 12.0291 21.9 11.6364 22.0022C11.2436 22.1044 11.0109 22.4986 11.1127 22.8928C11.2146 23.214 11.4909 23.4476 11.8109 23.4476ZM12.0436 25.6522C12.1164 25.6522 12.1746 25.6522 12.2327 25.623C12.6255 25.5208 12.8582 25.1266 12.7564 24.7324C12.6546 24.3382 12.2618 24.1046 11.8691 24.2068C11.4764 24.309 11.2436 24.7032 11.3455 25.0974C11.4473 25.4186 11.7236 25.6376 12.0436 25.6522ZM12.5091 27.7692C12.5818 27.7692 12.64 27.7692 12.6982 27.74C13.0909 27.6378 13.3236 27.2436 13.2218 26.8494C13.12 26.4552 12.7273 26.2216 12.3346 26.3238C11.9418 26.426 11.7091 26.8202 11.8109 27.2144C11.8982 27.5356 12.1746 27.7692 12.5091 27.7692ZM13.1636 29.8132C13.2364 29.8132 13.2946 29.8132 13.3527 29.784C13.7455 29.6818 13.9782 29.2876 13.8764 28.8934C13.7746 28.4992 13.3818 28.2656 12.9891 28.3678C12.5964 28.47 12.3636 28.8642 12.4655 29.2584C12.5527 29.5796 12.8436 29.7986 13.1636 29.8132ZM14.0218 31.755C14.0946 31.755 14.1527 31.755 14.2109 31.7258C14.6036 31.6236 14.8364 31.2294 14.7346 30.8352C14.6327 30.441 14.24 30.2074 13.8473 30.3096C13.4546 30.4118 13.2218 30.806 13.3236 31.2002C13.4109 31.5214 13.7018 31.7404 14.0218 31.755ZM15.0691 33.58C15.1418 33.58 15.2 33.58 15.2582 33.5508C15.6509 33.4486 15.8836 33.0544 15.7818 32.6602C15.68 32.266 15.2873 32.0324 14.8946 32.1346C14.5018 32.2368 14.2691 32.631 14.3709 33.0252C14.4582 33.3464 14.7491 33.58 15.0691 33.58ZM16.2909 35.2882C16.3636 35.2882 16.4218 35.2882 16.48 35.259C16.8727 35.1568 17.1055 34.7626 17.0036 34.3684C16.9018 33.9742 16.5091 33.7406 16.1164 33.8428C15.7236 33.945 15.4909 34.3392 15.5927 34.7334C15.68 35.0546 15.9564 35.2882 16.2909 35.2882ZM17.6727 36.865C17.7455 36.865 17.8036 36.865 17.8618 36.8358C18.2546 36.7336 18.4873 36.3394 18.3855 35.9452C18.2836 35.551 17.8909 35.3174 17.4982 35.4196C17.1055 35.5218 16.8727 35.916 16.9746 36.3102C17.0618 36.6314 17.3382 36.865 17.6727 36.865ZM19.2 38.2958C19.2727 38.2958 19.3309 38.2958 19.3891 38.2666C19.7818 38.1644 20.0146 37.7702 19.9127 37.376C19.8109 36.9818 19.4182 36.7482 19.0255 36.8504C18.6327 36.9526 18.4 37.3468 18.5018 37.741C18.5891 38.0622 18.8655 38.2812 19.2 38.2958ZM20.8582 39.566C20.9309 39.566 20.9891 39.566 21.0473 39.5368C21.44 39.4346 21.6727 39.0404 21.5709 38.6462C21.4691 38.252 21.0764 38.0184 20.6836 38.1206C20.2909 38.2228 20.0582 38.617 20.16 39.0112C20.2473 39.3324 20.5382 39.5514 20.8582 39.566ZM22.6473 40.661C22.72 40.661 22.7782 40.661 22.8364 40.6318C23.2291 40.5296 23.4618 40.1354 23.36 39.7412C23.2582 39.347 22.8655 39.1134 22.4727 39.2156C22.08 39.3178 21.8473 39.712 21.9491 40.1062C22.0364 40.4274 22.3273 40.661 22.6473 40.661ZM24.5527 41.5808C24.6255 41.5808 24.6836 41.5808 24.7418 41.5516C25.1346 41.4494 25.3673 41.0552 25.2655 40.661C25.1636 40.2668 24.7709 40.0332 24.3782 40.1354C23.9855 40.2376 23.7527 40.6318 23.8546 41.026C23.9418 41.3472 24.2182 41.5662 24.5527 41.5808ZM26.56 42.2962C26.6327 42.2962 26.6909 42.2962 26.7491 42.267C27.1418 42.1648 27.3746 41.7706 27.2727 41.3764C27.1709 40.9822 26.7782 40.7486 26.3855 40.8508C25.9927 40.953 25.76 41.3472 25.8618 41.7414C25.9491 42.0772 26.2255 42.2962 26.56 42.2962ZM28.6546 42.8218C28.7273 42.8218 28.7855 42.8218 28.8436 42.7926C29.2364 42.6904 29.4691 42.2962 29.3673 41.902C29.2655 41.5078 28.8727 41.2742 28.48 41.3764C28.0873 41.4786 27.8546 41.8728 27.9564 42.267C28.0436 42.5882 28.32 42.8072 28.6546 42.8218ZM30.8218 43.1138C30.8946 43.1138 30.9527 43.1138 31.0109 43.0846C31.4036 42.9824 31.6364 42.5882 31.5346 42.194C31.4327 41.7998 31.04 41.5662 30.6473 41.6684C30.2546 41.7706 30.0218 42.1648 30.1236 42.559C30.2109 42.8802 30.4873 43.1138 30.8218 43.1138ZM33.0618 43.1868C33.1346 43.1868 33.1927 43.1868 33.2509 43.1576C33.6436 43.0554 33.8764 42.6612 33.7746 42.267C33.6727 41.8728 33.28 41.6392 32.8873 41.7414C32.4946 41.8436 32.2618 42.2378 32.3636 42.632C32.4509 42.9532 32.7273 43.1722 33.0618 43.1868ZM35.2727 43.0116C35.3455 43.0116 35.4036 43.0116 35.4618 42.9824C35.8546 42.8802 36.0873 42.486 35.9855 42.0918C35.8836 41.6976 35.4909 41.464 35.0982 41.5662C34.7055 41.6684 34.4727 42.0626 34.5746 42.4568C34.6618 42.778 34.9527 43.0116 35.2727 43.0116ZM37.4255 42.6174C37.4982 42.6174 37.5564 42.6174 37.6146 42.5882C38.0073 42.486 38.24 42.0918 38.1382 41.6976C38.0364 41.3034 37.6436 41.0698 37.2509 41.172C36.8582 41.2742 36.6255 41.6684 36.7273 42.0626C36.8146 42.3838 37.1055 42.6028 37.4255 42.6174ZM39.4909 42.0042C39.5636 42.0042 39.6218 42.0042 39.68 41.975C40.0727 41.8728 40.3055 41.4786 40.2036 41.0844C40.1018 40.6902 39.7091 40.4566 39.3164 40.5588C38.9236 40.661 38.6909 41.0552 38.7927 41.4494C38.88 41.7706 39.1709 42.0042 39.4909 42.0042ZM41.4691 41.1866C41.5418 41.1866 41.6 41.1866 41.6582 41.1574C42.0509 41.0552 42.2836 40.661 42.1818 40.2668C42.08 39.8726 41.6873 39.639 41.2946 39.7412C40.9018 39.8434 40.6691 40.2376 40.7709 40.6318C40.8582 40.953 41.1346 41.1866 41.4691 41.1866ZM43.3309 40.1792C43.4036 40.1792 43.4618 40.1792 43.52 40.15C43.9127 40.0478 44.1455 39.6536 44.0436 39.2594C43.9418 38.8652 43.5491 38.6316 43.1564 38.7338C42.7636 38.836 42.5309 39.2302 42.6327 39.6244C42.72 39.9456 42.9964 40.1792 43.3309 40.1792ZM45.0764 38.9966C45.1491 38.9966 45.2073 38.9966 45.2655 38.9674C45.6582 38.8652 45.8909 38.471 45.7891 38.0768C45.6873 37.6826 45.2946 37.449 44.9018 37.5512C44.5091 37.6534 44.2764 38.0476 44.3782 38.4418C44.4655 38.763 44.7418 38.9966 45.0764 38.9966ZM46.6764 37.6388C46.7491 37.6388 46.8073 37.6388 46.8655 37.6096C47.2582 37.5074 47.4909 37.1132 47.3891 36.719C47.2873 36.3248 46.8946 36.0912 46.5018 36.1934C46.1091 36.2956 45.8764 36.6898 45.9782 37.084C46.08 37.4198 46.3564 37.6388 46.6764 37.6388ZM48.1455 36.135C48.2182 36.135 48.2764 36.135 48.3346 36.1058C48.7273 36.0036 48.96 35.6094 48.8582 35.2152C48.7564 34.821 48.3636 34.5874 47.9709 34.6896C47.5782 34.7918 47.3455 35.186 47.4473 35.5802C47.5491 35.916 47.8255 36.135 48.1455 36.135ZM49.4691 34.4852C49.5418 34.4852 49.6 34.4852 49.6582 34.456C50.0509 34.3538 50.2836 33.9596 50.1818 33.5654C50.08 33.1712 49.6873 32.9376 49.2946 33.0398C48.9018 33.142 48.6691 33.5362 48.7709 33.9304C48.8582 34.2662 49.1346 34.4852 49.4691 34.4852ZM50.6036 32.7186C50.6764 32.7186 50.7346 32.7186 50.7927 32.6894C51.1855 32.5872 51.4182 32.193 51.3164 31.7988C51.2146 31.4046 50.8218 31.171 50.4291 31.2732C50.0364 31.3754 49.8036 31.7696 49.9055 32.1638C49.9927 32.485 50.2836 32.704 50.6036 32.7186ZM32.5236 73C32.5964 73 32.6546 73 32.7127 72.9708C33.1055 72.8686 33.3382 72.4744 33.2364 72.0802C33.1346 71.686 32.7418 71.4524 32.3491 71.5546C31.9564 71.6568 31.7236 72.051 31.8255 72.4452C31.9127 72.7664 32.2036 73 32.5236 73ZM3.0691 57.378C2.63273 57.378 2.19637 57.305 1.7891 57.1298C1.06183 56.8232 0.480007 56.2246 0.218189 55.48C0.0727343 55.0858 7.06266e-06 54.677 0.0145525 54.2682V54.2536C0.0145525 53.8448 0.0872798 53.4506 0.232734 53.071C0.378189 52.706 0.581825 52.3556 0.843644 52.0636C1.41092 51.4504 2.19637 51.1146 3.02546 51.1146C3.25819 51.1146 3.49092 51.1292 3.72364 51.173C3.92728 51.2022 4.11637 51.2606 4.30546 51.3336C4.48001 51.4066 4.65455 51.4796 4.81455 51.5818C4.97455 51.684 5.13455 51.8008 5.28001 51.9176L4.84364 52.4286C4.72728 52.3264 4.61092 52.2388 4.48001 52.1512C4.3491 52.0636 4.21819 51.9906 4.07273 51.9322C3.91273 51.8738 3.75273 51.8154 3.59273 51.7862C3.40364 51.757 3.20001 51.7278 3.01092 51.7278C2.69092 51.7278 2.38546 51.7862 2.09455 51.9322C1.81819 52.0636 1.57092 52.2388 1.36728 52.4724C1.16364 52.706 1.00364 52.9688 0.88728 53.2608C0.770916 53.5674 0.712734 53.8886 0.712734 54.2098V54.2244C0.712734 54.5602 0.770916 54.9106 0.88728 55.2318C0.989098 55.5238 1.1491 55.8012 1.36728 56.0202C1.57092 56.2538 1.83273 56.429 2.1091 56.5458C2.4291 56.6772 2.76364 56.7356 3.09819 56.7356C3.43273 56.7356 3.76728 56.6772 4.07273 56.5604C4.3491 56.4582 4.61092 56.3122 4.84364 56.137V54.6332H2.99637V54.02H5.48364V56.429C5.17819 56.7064 4.8291 56.9254 4.45092 57.086C4.01455 57.2904 3.53455 57.3926 3.0691 57.378ZM16.3491 51.1876H15.7091L12.96 57.2758H13.6582L14.3709 55.6698H17.6436L18.3564 57.2758H19.0836L16.3491 51.1876ZM14.6327 55.0712L16.0146 51.9906L17.3818 55.0712H14.6327ZM20.3055 51.2314H20.9455L24.7418 56.0786V51.2314H25.3964V57.2758H24.8582L20.9746 52.3118V57.2758H20.32V51.2314H20.3055ZM32.4509 57.378C31.6364 57.3926 30.8509 57.0568 30.2836 56.4728C30.0073 56.1808 29.7891 55.845 29.6582 55.48C29.4982 55.0858 29.4255 54.677 29.4255 54.2682V54.2536C29.4255 53.8448 29.4982 53.436 29.6582 53.0418C29.8036 52.6768 30.0218 52.3264 30.2836 52.049C30.56 51.757 30.88 51.538 31.2436 51.3774C31.6364 51.2168 32.0436 51.1292 32.4655 51.1292C32.7127 51.1292 32.96 51.1438 33.2073 51.2022C33.4255 51.246 33.6291 51.3044 33.8182 51.392C34.0073 51.4796 34.1818 51.5818 34.3418 51.6986C34.5018 51.8154 34.6618 51.9468 34.8073 52.0928L34.3418 52.5892C34.0946 52.3556 33.8182 52.1512 33.5127 51.9906C32.5964 51.538 31.4909 51.7278 30.7927 52.4724C30.5746 52.706 30.4146 52.9688 30.2982 53.2608C30.1818 53.5674 30.1236 53.9032 30.1236 54.239V54.2536C30.1236 54.5894 30.1818 54.9252 30.2982 55.2318C30.4146 55.5238 30.5746 55.7866 30.7927 56.0202C30.9964 56.2392 31.2582 56.429 31.5346 56.5458C31.8255 56.6772 32.1455 56.7502 32.4655 56.7356C32.8291 56.7502 33.2073 56.6626 33.5273 56.502C33.8473 56.3268 34.1527 56.1078 34.4 55.8596L34.8509 56.2976C34.7055 56.4582 34.5455 56.6042 34.3709 56.7356C34.1964 56.867 34.0218 56.9838 33.8327 57.0714C33.6291 57.159 33.4255 57.232 33.2073 57.2904C32.96 57.3634 32.7127 57.3926 32.4509 57.378ZM39.0255 51.1876H38.3855L35.6364 57.2758H36.3346L37.0473 55.6698H40.32L41.0327 57.2758H41.76L39.0255 51.1876ZM37.3236 55.0712L38.6909 51.976L40.0582 55.0566H37.3236V55.0712ZM45.0909 57.3634C44.64 57.3634 44.1891 57.2904 43.7673 57.1298C43.3455 56.9546 42.9673 56.7064 42.6327 56.3998L43.0546 55.9034C43.3309 56.1662 43.6655 56.3852 44.0146 56.5458C44.3636 56.6918 44.7418 56.7648 45.12 56.7502C45.4691 56.7648 45.8182 56.6626 46.0946 56.4582C46.3273 56.283 46.4582 56.0056 46.4582 55.7136V55.699C46.4582 55.5676 46.4436 55.4362 46.3855 55.3194C46.3273 55.2026 46.2546 55.1004 46.1382 55.0128C45.9927 54.9106 45.8327 54.823 45.6582 54.7646C45.3964 54.677 45.1491 54.604 44.8727 54.5456C44.5673 54.4872 44.2618 54.3996 43.9709 54.2828C43.7382 54.1952 43.5346 54.0784 43.3309 53.9324C43.1709 53.801 43.04 53.6404 42.9673 53.4506C42.88 53.2462 42.8364 53.0272 42.8509 52.8082V52.7936C42.8509 52.56 42.8946 52.341 42.9964 52.1366C43.0982 51.9322 43.2291 51.757 43.4036 51.611C43.5927 51.465 43.7964 51.3482 44.0291 51.2606C44.2909 51.173 44.5527 51.1292 44.8146 51.1292C45.2073 51.1146 45.6 51.1876 45.9782 51.319C46.3273 51.4504 46.6473 51.6402 46.9382 51.8738L46.5455 52.3994C46.2982 52.1804 46.0073 52.0198 45.7018 51.903C45.4109 51.8008 45.12 51.7424 44.8146 51.7424C44.48 51.7278 44.1455 51.83 43.8836 52.0198C43.6655 52.1804 43.5346 52.4432 43.5346 52.7206V52.7352C43.5346 52.8666 43.5491 52.998 43.6073 53.1148C43.6655 53.2316 43.7527 53.3484 43.8546 53.4214C44 53.5382 44.1746 53.6258 44.3491 53.6842C44.6109 53.7718 44.8873 53.8448 45.1636 53.9032C45.7018 53.9908 46.2109 54.2098 46.6473 54.531C46.9673 54.7938 47.1418 55.2026 47.1273 55.626V55.6406C47.1273 55.8888 47.0836 56.1224 46.9818 56.3414C46.88 56.5458 46.7346 56.7356 46.56 56.8816C46.3709 57.0422 46.1527 57.159 45.9055 57.232C45.6436 57.3196 45.3673 57.3634 45.0909 57.3634ZM48.6691 51.2314H49.3527V57.2758H48.6691V51.2314ZM51.2146 51.2314H51.8546L55.6509 56.0786V51.2314H56.32V57.2758H55.7818L51.8982 52.3118V57.2758H51.2291L51.2146 51.2314ZM63.7818 53.0418C63.4909 52.2972 62.9237 51.684 62.1964 51.3628C60.6546 50.662 58.8509 51.3482 58.1527 52.8958C58.1236 52.9542 58.1091 52.998 58.08 53.0564C57.9346 53.436 57.8618 53.8448 57.8618 54.2536V54.2682C57.8618 54.677 57.9346 55.0712 58.08 55.4508C58.3709 56.1954 58.9382 56.8086 59.68 57.1298C61.2218 57.8306 63.0255 57.1444 63.7237 55.5968C63.7527 55.5384 63.7673 55.4946 63.7964 55.4362C63.9418 55.0566 64.0291 54.6478 64.0146 54.239V54.2244C64 53.8302 63.9273 53.4214 63.7818 53.0418ZM63.2873 54.2682C63.2873 54.604 63.2291 54.9252 63.1127 55.2318C62.9964 55.5238 62.8364 55.7866 62.6327 56.0202C62.4291 56.2538 62.1673 56.429 61.8909 56.5458C61.5855 56.6772 61.2655 56.7502 60.9455 56.7356C60.6109 56.7356 60.2909 56.6772 60 56.5312C59.4182 56.2684 58.9818 55.8012 58.7491 55.2026C58.6327 54.896 58.5746 54.5602 58.5746 54.2244V54.2098C58.5746 53.874 58.6327 53.5528 58.7491 53.2462C58.8655 52.9542 59.0255 52.6914 59.2291 52.4578C59.4327 52.2242 59.6946 52.049 59.9709 51.9322C60.2764 51.8008 60.5964 51.7278 60.9164 51.7424C61.2509 51.7424 61.5709 51.8008 61.8618 51.9468C62.4436 52.2096 62.88 52.6768 63.1127 53.2754C63.2291 53.582 63.2873 53.9178 63.2873 54.2536V54.2682ZM10.2255 54.823L10.3418 54.8084C10.56 54.7646 10.7636 54.7062 10.9527 54.6186C11.1418 54.531 11.3309 54.4142 11.4764 54.2536C11.6218 54.1076 11.7382 53.9324 11.8109 53.7426C11.8982 53.5236 11.9273 53.3046 11.9273 53.071V53.0418C11.9273 52.8228 11.8836 52.5892 11.8109 52.3848C11.7382 52.1804 11.6218 52.0052 11.4618 51.8592C11.2582 51.6548 11.0109 51.5088 10.7491 51.4066C10.4291 51.2898 10.0946 51.246 9.76001 51.246H7.15637V57.2904H7.84001V54.9398H9.52728C9.80364 56.2392 10.9236 57.2028 12.2473 57.2904V56.6626C11.2582 56.502 10.4582 55.7866 10.2255 54.823ZM7.84001 54.312V51.8446H9.71637C10.1236 51.8154 10.5164 51.9322 10.8509 52.1512C11.1273 52.3556 11.2727 52.6914 11.2582 53.0272V53.0418C11.2582 53.217 11.2146 53.4068 11.1418 53.5674C11.0691 53.7134 10.9527 53.8448 10.8218 53.947C10.6764 54.0638 10.5018 54.1368 10.3273 54.1952C10.1236 54.2536 9.92001 54.2828 9.70183 54.2828L7.84001 54.312ZM21.8764 66.9702C20.6546 66.9556 19.4182 66.941 18.1818 66.941C17.8036 66.9556 17.4109 66.9702 17.0327 66.9702L17.0909 66.7804C17.8473 66.8096 17.9055 66.5322 18.0946 65.8898L19.04 62.3858C19.1127 62.1668 19.1709 61.9478 19.2 61.7142C19.2 61.3638 18.6473 61.4076 18.4436 61.4076L18.5018 61.2178C18.88 61.2324 19.2582 61.247 19.6364 61.247C20.0727 61.2324 20.5091 61.2178 20.9455 61.2178L20.8873 61.4076C20.64 61.4076 20.3055 61.4222 20.16 61.6266C20 61.9478 19.8836 62.2836 19.7964 62.634L18.9964 65.627C18.9236 65.846 18.88 66.0796 18.8655 66.3132C18.8655 66.868 19.7236 66.7658 20.0436 66.7658C21.1491 66.7658 21.6436 66.6052 22.0946 65.4956H22.2836L21.8764 66.9702ZM25.8182 63.3348H26.4291L26.0509 64.3714C25.7746 65.0868 25.5855 65.846 25.4836 66.6052C25.4836 66.6782 25.4982 66.8096 25.6 66.8096C25.8909 66.8096 26.3127 65.8898 26.4436 65.627L26.6182 65.7C26.3564 66.1964 26.08 67.0578 25.4109 67.0578C25.1491 67.087 24.9164 66.8972 24.8873 66.6344C24.8873 66.6052 24.8873 66.5906 24.8873 66.5614C24.9018 66.4008 24.9309 66.2256 24.96 66.065L24.9455 66.0504C24.7273 66.5906 24.2327 66.9702 23.6655 67.0578C23.1273 67.0578 22.6909 66.6198 22.6909 66.0796C22.6909 66.065 22.6909 66.0504 22.6909 66.0358C22.6909 64.9116 23.8255 63.2034 25.0327 63.2034C25.3236 63.2034 25.6 63.3932 25.6873 63.6706L25.8182 63.3348ZM23.3164 66.284C23.3164 66.5468 23.4327 66.868 23.7382 66.868C24.3491 66.868 24.7709 66.0504 25.0036 65.554C25.2655 65.0284 25.44 64.459 25.4982 63.8604C25.5127 63.6268 25.3382 63.4224 25.1055 63.4078C25.1055 63.4078 25.1055 63.4078 25.0909 63.4078C24.2473 63.4078 23.3164 65.5832 23.3164 66.284ZM27.9273 66.9556H27.2727L27.4618 66.4154C27.7673 65.554 28 64.6634 28.1164 63.7582C28.1164 63.656 28.1018 63.4808 27.9564 63.4808C27.6073 63.4808 27.2436 64.3714 27.0982 64.6342L26.9236 64.5758C27.1418 64.0794 27.4618 63.218 28.1455 63.218C28.4364 63.218 28.6691 63.4516 28.6836 63.7436C28.6836 63.7728 28.6836 63.7874 28.6836 63.8166C28.6691 64.0356 28.6546 64.24 28.6109 64.459L28.5818 64.6196L28.5964 64.6342C28.8873 64.0648 29.3964 63.218 30.1382 63.218C30.5164 63.218 30.8218 63.5246 30.8073 63.9042V63.9188C30.7782 64.3568 30.6764 64.7948 30.5164 65.189L30.3564 65.6124C30.2255 65.919 30.1382 66.2256 30.0655 66.5468C30.0655 66.6344 30.1236 66.8096 30.24 66.8096C30.5891 66.8096 30.9964 65.992 31.1273 65.7146L31.3018 65.8022C31.0836 66.284 30.6618 67.0724 30.0655 67.0724C29.76 67.087 29.4982 66.8388 29.4982 66.5322C29.4982 66.503 29.4982 66.4884 29.4982 66.4592C29.5564 66.0358 29.6582 65.627 29.8182 65.2328L29.9782 64.8094C30.1382 64.4882 30.24 64.1378 30.2836 63.7728C30.2836 63.6122 30.1527 63.4808 29.9927 63.4808C29.5273 63.4808 29.0182 64.24 28.8291 64.605C28.48 65.2766 28.2036 65.9774 28 66.6928L27.9273 66.9556ZM33.9346 63.4224C33.9636 63.3348 34.0073 63.218 34.1236 63.218C34.1964 63.2034 34.2546 63.2618 34.2546 63.3202V63.3348C34.2255 63.4662 34.1527 63.583 34.08 63.6706L32.1309 66.2402C32.3346 66.1964 32.5382 66.1818 32.7418 66.1672C32.9455 66.1672 33.1491 66.1964 33.3382 66.2548C33.44 66.284 33.5564 66.2986 33.6727 66.3132C33.92 66.3424 34.1527 66.1526 34.1673 65.9044C34.1673 65.8752 34.1673 65.8606 34.1673 65.8314C34.1673 65.8022 34.1818 65.7 34.2255 65.7C34.3564 65.7 34.3855 66.0358 34.3855 66.1234C34.4436 66.576 34.1236 66.9848 33.6727 67.0432C33.6291 67.0432 33.6 67.0432 33.5564 67.0432C33.2655 67.0286 32.9891 66.9264 32.7709 66.7512C32.5964 66.5906 32.3927 66.4884 32.16 66.4592C31.9564 66.4592 31.7673 66.6052 31.7382 66.8096C31.7091 66.9118 31.6655 67.0578 31.5346 67.0578C31.4618 67.0578 31.4036 67.014 31.4036 66.941C31.4036 66.722 31.7091 66.4008 31.84 66.2256L33.6 63.9334L33.5855 63.9188C33.3818 63.9772 33.1636 64.021 32.96 64.021C32.7273 64.021 32.5236 63.9334 32.32 63.9334C32.1164 63.9334 32.0146 64.1524 32.0291 64.3422C32.0436 64.386 32.0436 64.459 31.9855 64.459C31.8691 64.459 31.8109 64.1086 31.8109 64.0356C31.8255 63.6122 32.1746 63.2618 32.6109 63.2764C33.1055 63.2764 33.28 63.7728 33.6 63.7728C33.7891 63.7728 33.8618 63.6122 33.9346 63.4224ZM37.9636 63.3348H38.5746L38.1964 64.3714C37.92 65.0868 37.7309 65.846 37.6291 66.6052C37.6291 66.6782 37.6436 66.8096 37.7455 66.8096C38.0364 66.8096 38.4582 65.8898 38.5891 65.627L38.7636 65.7C38.5018 66.1964 38.2255 67.0578 37.5564 67.0578C37.2946 67.087 37.0618 66.8972 37.0473 66.6344C37.0473 66.6052 37.0473 66.5906 37.0473 66.5614C37.0618 66.4008 37.0909 66.2256 37.12 66.065L37.1055 66.0504C36.8873 66.5906 36.3927 66.9702 35.8255 67.0578C35.2873 67.0578 34.8509 66.6198 34.8509 66.0796C34.8509 66.065 34.8509 66.0504 34.8509 66.0358C34.8509 64.9116 35.9855 63.2034 37.1927 63.2034C37.4836 63.2034 37.76 63.3932 37.8473 63.6706L37.9636 63.3348ZM35.4618 66.284C35.4618 66.5468 35.5782 66.868 35.8836 66.868C36.4946 66.868 36.9164 66.0504 37.1491 65.554C37.4109 65.0284 37.5855 64.459 37.6436 63.8604C37.6582 63.6268 37.4836 63.4224 37.2509 63.4078C37.2509 63.4078 37.2509 63.4078 37.2364 63.4078C36.3927 63.4078 35.4618 65.5832 35.4618 66.284ZM38.8946 64.4882C39.0546 64.094 39.5491 63.218 40 63.218C40.4364 63.218 40.5818 63.6706 40.5673 64.021C40.5527 64.2108 40.5091 64.4006 40.4946 64.5904L40.5091 64.605C40.6836 64.1232 41.1055 63.2034 41.7164 63.2034C41.9636 63.1742 42.1818 63.3494 42.1964 63.5976C42.1818 63.7728 42.0364 63.9188 41.8618 63.9188C41.7164 63.9334 41.5855 63.8166 41.5709 63.6706C41.5709 63.656 41.5709 63.656 41.5709 63.6414C41.5709 63.583 41.5855 63.4662 41.5127 63.4662C41.3382 63.4662 41.0327 63.9334 40.9746 64.0794C40.6546 64.7364 40.3927 65.4226 40.1891 66.1234L39.9127 66.941H39.2727L39.7091 65.5102C39.84 64.9992 39.9273 64.4736 39.9564 63.9334C39.9564 63.8604 39.9709 63.4516 39.8255 63.4516C39.6218 63.4516 39.1418 64.3422 39.0691 64.532L38.8946 64.4882ZM41.8473 65.8022C41.8473 64.7948 42.6764 63.218 43.84 63.218C44.5236 63.2472 45.0618 63.8166 45.0473 64.5028C45.0473 64.5466 45.0473 64.5758 45.0327 64.6196C45.0327 65.627 44.1746 67.0578 43.04 67.0578C42.4 67.087 41.8618 66.5906 41.8327 65.9482C41.8327 65.9044 41.8327 65.846 41.8473 65.8022ZM44.4073 64.0502C44.4509 63.729 44.2182 63.4516 43.8982 63.4078C43.8836 63.4078 43.8836 63.4078 43.8691 63.4078C42.9673 63.4078 42.4582 65.5102 42.4582 66.2256C42.4582 66.6198 42.6327 66.8826 43.04 66.8826C44 66.868 44.4073 64.7802 44.4073 64.0502ZM47.3746 62.123L46.9964 63.3348H47.6655L47.6073 63.5246H46.9382L46.8655 63.7436C46.5746 64.678 46.3418 65.6124 46.1527 66.576C46.1527 66.6928 46.1673 66.8096 46.2982 66.8096C46.6473 66.8096 47.0255 65.9482 47.1855 65.6708L47.36 65.773C47.1127 66.2694 46.7927 67.0724 46.1091 67.0724C45.8036 67.087 45.5418 66.8388 45.5273 66.5322C45.5273 66.5176 45.5273 66.503 45.5273 66.4884C45.5709 66.065 45.6582 65.6416 45.8036 65.2328L46.2982 63.5246H45.6146L45.6873 63.3348H46.3709L46.7782 62.123H47.3746ZM50.1818 65.9482C49.8909 66.5468 49.3091 66.9702 48.64 67.0724C48.1455 67.1016 47.7091 66.722 47.6655 66.2256C47.6655 66.1818 47.6655 66.1234 47.6655 66.0796C47.6655 64.9846 48.6982 63.218 49.9055 63.218C50.2255 63.2034 50.5018 63.437 50.5309 63.7582C50.5309 63.7728 50.5309 63.7874 50.5309 63.8166C50.5309 64.7218 49.2655 65.2328 48.5673 65.5248L48.4364 65.5832C48.3491 65.846 48.2909 66.1088 48.2909 66.3862C48.2909 66.649 48.4218 66.8826 48.7127 66.8826C49.2946 66.8826 49.7018 66.2548 50.0218 65.846L50.1818 65.9482ZM50.0655 63.6852C50.08 63.5392 49.9782 63.4224 49.8473 63.3932C49.8327 63.3932 49.8182 63.3932 49.8036 63.3932C49.1782 63.3932 48.6546 64.8094 48.5236 65.335C49.12 65.0722 50.0655 64.459 50.0655 63.6852Z" fill="#A36F49"/>
</g>
<defs>
<clipPath id="clip0_56_3">
<rect width="64" height="73" fill="white"/>
</clipPath>
</defs>
</svg>
